G04 ================== begin FILE IDENTIFICATION RECORD ==================*
G04 Layout Name:  C:/Users/user/Desktop/avrusb500/Allegro/allegro/AVRUSB500_0729.brd*
G04 Film Name:    DrillDraw*
G04 File Format:  Gerber RS274X*
G04 File Origin:  Cadence Allegro 17.2-P019*
G04 Origin Date:  Mon Jul 29 16:47:21 2019*
G04 *
G04 Layer:  BOARD GEOMETRY/DESIGN_OUTLINE*
G04 Layer:  MANUFACTURING/NCLEGEND-1-2*
G04 *
G04 Offset:    (0.0000 0.0000)*
G04 Mirror:    No*
G04 Mode:      Positive*
G04 Rotation:  0*
G04 FullContactRelief:  No*
G04 UndefLineWidth:     0.0000*
G04 ================== end FILE IDENTIFICATION RECORD ====================*
%FSLAX25Y25*MOIN*%
%IR0*IPPOS*OFA0.00000B0.00000*MIA0B0*SFA1.00000B1.00000*%
%AMMACRO10*
1,1,0.0,-.017715,.009844*
20,1,0.0,-.017715,.009844,.017715,.009844,0.0*
1,1,0.0,.017715,.009844*
20,1,0.0,.017715,.009844,.019424,.009695,0.0*
1,1,0.0,.019424,.009695*
20,1,0.0,.019424,.009695,.021082,.009251,0.0*
1,1,0.0,.021082,.009251*
20,1,0.0,.021082,.009251,.022637,.008526,0.0*
1,1,0.0,.022637,.008526*
20,1,0.0,.022637,.008526,.024042,.007541,0.0*
1,1,0.0,.024042,.007541*
20,1,0.0,.024042,.007541,.025256,.006328,0.0*
1,1,0.0,.025256,.006328*
20,1,0.0,.025256,.006328,.02624,.004922,0.0*
1,1,0.0,.02624,.004922*
20,1,0.0,.02624,.004922,.026965,.003367,0.0*
1,1,0.0,.026965,.003367*
20,1,0.0,.026965,.003367,.027409,.001709,0.0*
1,1,0.0,.027409,.001709*
20,1,0.0,.027409,.001709,.027559,0.0,0.0*
1,1,0.0,.027559,0.0*
20,1,0.0,.027559,0.0,.027409,-.001709,0.0*
1,1,0.0,.027409,-.001709*
20,1,0.0,.027409,-.001709,.026965,-.003367,0.0*
1,1,0.0,.026965,-.003367*
20,1,0.0,.026965,-.003367,.02624,-.004922,0.0*
1,1,0.0,.02624,-.004922*
20,1,0.0,.02624,-.004922,.025256,-.006328,0.0*
1,1,0.0,.025256,-.006328*
20,1,0.0,.025256,-.006328,.024042,-.007541,0.0*
1,1,0.0,.024042,-.007541*
20,1,0.0,.024042,-.007541,.022637,-.008526,0.0*
1,1,0.0,.022637,-.008526*
20,1,0.0,.022637,-.008526,.021082,-.009251,0.0*
1,1,0.0,.021082,-.009251*
20,1,0.0,.021082,-.009251,.019424,-.009695,0.0*
1,1,0.0,.019424,-.009695*
20,1,0.0,.019424,-.009695,.017715,-.009844,0.0*
1,1,0.0,.017715,-.009844*
20,1,0.0,.017715,-.009844,-.017715,-.009844,0.0*
1,1,0.0,-.017715,-.009844*
20,1,0.0,-.017715,-.009844,-.019424,-.009695,0.0*
1,1,0.0,-.019424,-.009695*
20,1,0.0,-.019424,-.009695,-.021082,-.009251,0.0*
1,1,0.0,-.021082,-.009251*
20,1,0.0,-.021082,-.009251,-.022637,-.008526,0.0*
1,1,0.0,-.022637,-.008526*
20,1,0.0,-.022637,-.008526,-.024042,-.007541,0.0*
1,1,0.0,-.024042,-.007541*
20,1,0.0,-.024042,-.007541,-.025256,-.006328,0.0*
1,1,0.0,-.025256,-.006328*
20,1,0.0,-.025256,-.006328,-.02624,-.004922,0.0*
1,1,0.0,-.02624,-.004922*
20,1,0.0,-.02624,-.004922,-.026965,-.003367,0.0*
1,1,0.0,-.026965,-.003367*
20,1,0.0,-.026965,-.003367,-.027409,-.001709,0.0*
1,1,0.0,-.027409,-.001709*
20,1,0.0,-.027409,-.001709,-.027559,0.0,0.0*
1,1,0.0,-.027559,0.0*
20,1,0.0,-.027559,0.0,-.027409,.001709,0.0*
1,1,0.0,-.027409,.001709*
20,1,0.0,-.027409,.001709,-.026965,.003367,0.0*
1,1,0.0,-.026965,.003367*
20,1,0.0,-.026965,.003367,-.02624,.004922,0.0*
1,1,0.0,-.02624,.004922*
20,1,0.0,-.02624,.004922,-.025256,.006328,0.0*
1,1,0.0,-.025256,.006328*
20,1,0.0,-.025256,.006328,-.024042,.007541,0.0*
1,1,0.0,-.024042,.007541*
20,1,0.0,-.024042,.007541,-.022637,.008526,0.0*
1,1,0.0,-.022637,.008526*
20,1,0.0,-.022637,.008526,-.021082,.009251,0.0*
1,1,0.0,-.021082,.009251*
20,1,0.0,-.021082,.009251,-.019424,.009695,0.0*
1,1,0.0,-.019424,.009695*
20,1,0.0,-.019424,.009695,-.017715,.009844,0.0*
1,1,0.0,-.017715,.009844*
%
%ADD10MACRO10*%
%AMMACRO14*
1,1,0.0,.025,0.0*
20,1,0.0,.025,0.0,.02462,-.004341,0.0*
1,1,0.0,.02462,-.004341*
20,1,0.0,.02462,-.004341,.023492,-.008551,0.0*
1,1,0.0,.023492,-.008551*
20,1,0.0,.023492,-.008551,.021651,-.0125,0.0*
1,1,0.0,.021651,-.0125*
20,1,0.0,.021651,-.0125,.019151,-.01607,0.0*
1,1,0.0,.019151,-.01607*
20,1,0.0,.019151,-.01607,.01607,-.019151,0.0*
1,1,0.0,.01607,-.019151*
20,1,0.0,.01607,-.019151,.0125,-.021651,0.0*
1,1,0.0,.0125,-.021651*
20,1,0.0,.0125,-.021651,.008551,-.023492,0.0*
1,1,0.0,.008551,-.023492*
20,1,0.0,.008551,-.023492,.004341,-.02462,0.0*
1,1,0.0,.004341,-.02462*
20,1,0.0,.004341,-.02462,0.0,-.025,0.0*
1,1,0.0,0.0,-.025*
20,1,0.0,0.0,-.025,-.004341,-.02462,0.0*
1,1,0.0,-.004341,-.02462*
20,1,0.0,-.004341,-.02462,-.008551,-.023492,0.0*
1,1,0.0,-.008551,-.023492*
20,1,0.0,-.008551,-.023492,-.0125,-.021651,0.0*
1,1,0.0,-.0125,-.021651*
20,1,0.0,-.0125,-.021651,-.01607,-.019151,0.0*
1,1,0.0,-.01607,-.019151*
20,1,0.0,-.01607,-.019151,-.019151,-.01607,0.0*
1,1,0.0,-.019151,-.01607*
20,1,0.0,-.019151,-.01607,-.021651,-.0125,0.0*
1,1,0.0,-.021651,-.0125*
20,1,0.0,-.021651,-.0125,-.023492,-.008551,0.0*
1,1,0.0,-.023492,-.008551*
20,1,0.0,-.023492,-.008551,-.02462,-.004341,0.0*
1,1,0.0,-.02462,-.004341*
20,1,0.0,-.02462,-.004341,-.025,0.0,0.0*
1,1,0.0,-.025,0.0*
20,1,0.0,-.025,0.0,-.02462,.004341,0.0*
1,1,0.0,-.02462,.004341*
20,1,0.0,-.02462,.004341,-.023492,.008551,0.0*
1,1,0.0,-.023492,.008551*
20,1,0.0,-.023492,.008551,-.021651,.0125,0.0*
1,1,0.0,-.021651,.0125*
20,1,0.0,-.021651,.0125,-.019151,.01607,0.0*
1,1,0.0,-.019151,.01607*
20,1,0.0,-.019151,.01607,-.01607,.019151,0.0*
1,1,0.0,-.01607,.019151*
20,1,0.0,-.01607,.019151,-.0125,.021651,0.0*
1,1,0.0,-.0125,.021651*
20,1,0.0,-.0125,.021651,-.008551,.023492,0.0*
1,1,0.0,-.008551,.023492*
20,1,0.0,-.008551,.023492,-.004341,.02462,0.0*
1,1,0.0,-.004341,.02462*
20,1,0.0,-.004341,.02462,0.0,.025,0.0*
1,1,0.0,0.0,.025*
20,1,0.0,0.0,.025,.004341,.02462,0.0*
1,1,0.0,.004341,.02462*
20,1,0.0,.004341,.02462,.008551,.023492,0.0*
1,1,0.0,.008551,.023492*
20,1,0.0,.008551,.023492,.0125,.021651,0.0*
1,1,0.0,.0125,.021651*
20,1,0.0,.0125,.021651,.01607,.019151,0.0*
1,1,0.0,.01607,.019151*
20,1,0.0,.01607,.019151,.019151,.01607,0.0*
1,1,0.0,.019151,.01607*
20,1,0.0,.019151,.01607,.021651,.0125,0.0*
1,1,0.0,.021651,.0125*
20,1,0.0,.021651,.0125,.023492,.008551,0.0*
1,1,0.0,.023492,.008551*
20,1,0.0,.023492,.008551,.02462,.004341,0.0*
1,1,0.0,.02462,.004341*
20,1,0.0,.02462,.004341,.025,0.0,0.0*
1,1,0.0,.025,0.0*
1,1,0.0,.0125,0.0*
20,1,0.0,.0125,0.0,-.0125,0.0,0.0*
1,1,0.0,-.0125,0.0*
1,1,0.0,0.0,.0125*
20,1,0.0,0.0,.0125,0.0,-.0125,0.0*
1,1,0.0,0.0,-.0125*
%
%ADD14MACRO14*%
%AMMACRO12*
1,1,0.0,.020984,0.0*
20,1,0.0,.020984,0.0,.020665,-.003644,0.0*
1,1,0.0,.020665,-.003644*
20,1,0.0,.020665,-.003644,.019719,-.007177,0.0*
1,1,0.0,.019719,-.007177*
20,1,0.0,.019719,-.007177,.018173,-.010492,0.0*
1,1,0.0,.018173,-.010492*
20,1,0.0,.018173,-.010492,.016075,-.013488,0.0*
1,1,0.0,.016075,-.013488*
20,1,0.0,.016075,-.013488,.013488,-.016075,0.0*
1,1,0.0,.013488,-.016075*
20,1,0.0,.013488,-.016075,.010492,-.018173,0.0*
1,1,0.0,.010492,-.018173*
20,1,0.0,.010492,-.018173,.007177,-.019719,0.0*
1,1,0.0,.007177,-.019719*
20,1,0.0,.007177,-.019719,.003644,-.020665,0.0*
1,1,0.0,.003644,-.020665*
20,1,0.0,.003644,-.020665,0.0,-.020984,0.0*
1,1,0.0,0.0,-.020984*
20,1,0.0,0.0,-.020984,-.003644,-.020665,0.0*
1,1,0.0,-.003644,-.020665*
20,1,0.0,-.003644,-.020665,-.007177,-.019719,0.0*
1,1,0.0,-.007177,-.019719*
20,1,0.0,-.007177,-.019719,-.010492,-.018173,0.0*
1,1,0.0,-.010492,-.018173*
20,1,0.0,-.010492,-.018173,-.013488,-.016075,0.0*
1,1,0.0,-.013488,-.016075*
20,1,0.0,-.013488,-.016075,-.016075,-.013488,0.0*
1,1,0.0,-.016075,-.013488*
20,1,0.0,-.016075,-.013488,-.018173,-.010492,0.0*
1,1,0.0,-.018173,-.010492*
20,1,0.0,-.018173,-.010492,-.019719,-.007177,0.0*
1,1,0.0,-.019719,-.007177*
20,1,0.0,-.019719,-.007177,-.020665,-.003644,0.0*
1,1,0.0,-.020665,-.003644*
20,1,0.0,-.020665,-.003644,-.020984,0.0,0.0*
1,1,0.0,-.020984,0.0*
20,1,0.0,-.020984,0.0,-.020665,.003644,0.0*
1,1,0.0,-.020665,.003644*
20,1,0.0,-.020665,.003644,-.019719,.007177,0.0*
1,1,0.0,-.019719,.007177*
20,1,0.0,-.019719,.007177,-.018173,.010492,0.0*
1,1,0.0,-.018173,.010492*
20,1,0.0,-.018173,.010492,-.016075,.013488,0.0*
1,1,0.0,-.016075,.013488*
20,1,0.0,-.016075,.013488,-.013488,.016075,0.0*
1,1,0.0,-.013488,.016075*
20,1,0.0,-.013488,.016075,-.010492,.018173,0.0*
1,1,0.0,-.010492,.018173*
20,1,0.0,-.010492,.018173,-.007177,.019719,0.0*
1,1,0.0,-.007177,.019719*
20,1,0.0,-.007177,.019719,-.003644,.020665,0.0*
1,1,0.0,-.003644,.020665*
20,1,0.0,-.003644,.020665,0.0,.020984,0.0*
1,1,0.0,0.0,.020984*
20,1,0.0,0.0,.020984,.003644,.020665,0.0*
1,1,0.0,.003644,.020665*
20,1,0.0,.003644,.020665,.007177,.019719,0.0*
1,1,0.0,.007177,.019719*
20,1,0.0,.007177,.019719,.010492,.018173,0.0*
1,1,0.0,.010492,.018173*
20,1,0.0,.010492,.018173,.013488,.016075,0.0*
1,1,0.0,.013488,.016075*
20,1,0.0,.013488,.016075,.016075,.013488,0.0*
1,1,0.0,.016075,.013488*
20,1,0.0,.016075,.013488,.018173,.010492,0.0*
1,1,0.0,.018173,.010492*
20,1,0.0,.018173,.010492,.019719,.007177,0.0*
1,1,0.0,.019719,.007177*
20,1,0.0,.019719,.007177,.020665,.003644,0.0*
1,1,0.0,.020665,.003644*
20,1,0.0,.020665,.003644,.020984,0.0,0.0*
1,1,0.0,.020984,0.0*
1,1,0.0,-.008744,-.010492*
20,1,0.0,-.008744,-.010492,0.0,.010492,0.0*
1,1,0.0,0.0,.010492*
20,1,0.0,0.0,.010492,.008744,-.010492,0.0*
1,1,0.0,.008744,-.010492*
1,1,0.0,.005594,-.00315*
20,1,0.0,.005594,-.00315,-.005594,-.00315,0.0*
1,1,0.0,-.005594,-.00315*
%
%ADD12MACRO12*%
%AMMACRO11*
1,1,0.0,-.026252,-.0375*
20,1,0.0,-.026252,-.0375,.026252,.0375,0.0*
1,1,0.0,.026252,.0375*
1,1,0.0,-.026252,.0375*
20,1,0.0,-.026252,.0375,.026252,-.0375,0.0*
1,1,0.0,.026252,-.0375*
%
%ADD11MACRO11*%
%AMMACRO13*
1,1,0.0,.01549,0.0*
20,1,0.0,.01549,0.0,.015255,-.00269,0.0*
1,1,0.0,.015255,-.00269*
20,1,0.0,.015255,-.00269,.014556,-.005298,0.0*
1,1,0.0,.014556,-.005298*
20,1,0.0,.014556,-.005298,.013415,-.007745,0.0*
1,1,0.0,.013415,-.007745*
20,1,0.0,.013415,-.007745,.011866,-.009957,0.0*
1,1,0.0,.011866,-.009957*
20,1,0.0,.011866,-.009957,.009957,-.011866,0.0*
1,1,0.0,.009957,-.011866*
20,1,0.0,.009957,-.011866,.007745,-.013415,0.0*
1,1,0.0,.007745,-.013415*
20,1,0.0,.007745,-.013415,.005298,-.014556,0.0*
1,1,0.0,.005298,-.014556*
20,1,0.0,.005298,-.014556,.00269,-.015255,0.0*
1,1,0.0,.00269,-.015255*
20,1,0.0,.00269,-.015255,0.0,-.01549,0.0*
1,1,0.0,0.0,-.01549*
20,1,0.0,0.0,-.01549,-.00269,-.015255,0.0*
1,1,0.0,-.00269,-.015255*
20,1,0.0,-.00269,-.015255,-.005298,-.014556,0.0*
1,1,0.0,-.005298,-.014556*
20,1,0.0,-.005298,-.014556,-.007745,-.013415,0.0*
1,1,0.0,-.007745,-.013415*
20,1,0.0,-.007745,-.013415,-.009957,-.011866,0.0*
1,1,0.0,-.009957,-.011866*
20,1,0.0,-.009957,-.011866,-.011866,-.009957,0.0*
1,1,0.0,-.011866,-.009957*
20,1,0.0,-.011866,-.009957,-.013415,-.007745,0.0*
1,1,0.0,-.013415,-.007745*
20,1,0.0,-.013415,-.007745,-.014556,-.005298,0.0*
1,1,0.0,-.014556,-.005298*
20,1,0.0,-.014556,-.005298,-.015255,-.00269,0.0*
1,1,0.0,-.015255,-.00269*
20,1,0.0,-.015255,-.00269,-.01549,0.0,0.0*
1,1,0.0,-.01549,0.0*
20,1,0.0,-.01549,0.0,-.015255,.00269,0.0*
1,1,0.0,-.015255,.00269*
20,1,0.0,-.015255,.00269,-.014556,.005298,0.0*
1,1,0.0,-.014556,.005298*
20,1,0.0,-.014556,.005298,-.013415,.007745,0.0*
1,1,0.0,-.013415,.007745*
20,1,0.0,-.013415,.007745,-.011866,.009957,0.0*
1,1,0.0,-.011866,.009957*
20,1,0.0,-.011866,.009957,-.009957,.011866,0.0*
1,1,0.0,-.009957,.011866*
20,1,0.0,-.009957,.011866,-.007745,.013415,0.0*
1,1,0.0,-.007745,.013415*
20,1,0.0,-.007745,.013415,-.005298,.014556,0.0*
1,1,0.0,-.005298,.014556*
20,1,0.0,-.005298,.014556,-.00269,.015255,0.0*
1,1,0.0,-.00269,.015255*
20,1,0.0,-.00269,.015255,0.0,.01549,0.0*
1,1,0.0,0.0,.01549*
20,1,0.0,0.0,.01549,.00269,.015255,0.0*
1,1,0.0,.00269,.015255*
20,1,0.0,.00269,.015255,.005298,.014556,0.0*
1,1,0.0,.005298,.014556*
20,1,0.0,.005298,.014556,.007745,.013415,0.0*
1,1,0.0,.007745,.013415*
20,1,0.0,.007745,.013415,.009957,.011866,0.0*
1,1,0.0,.009957,.011866*
20,1,0.0,.009957,.011866,.011866,.009957,0.0*
1,1,0.0,.011866,.009957*
20,1,0.0,.011866,.009957,.013415,.007745,0.0*
1,1,0.0,.013415,.007745*
20,1,0.0,.013415,.007745,.014556,.005298,0.0*
1,1,0.0,.014556,.005298*
20,1,0.0,.014556,.005298,.015255,.00269,0.0*
1,1,0.0,.015255,.00269*
20,1,0.0,.015255,.00269,.01549,0.0,0.0*
1,1,0.0,.01549,0.0*
1,1,0.0,-.006453,-.007744*
20,1,0.0,-.006453,-.007744,0.0,.007744,0.0*
1,1,0.0,0.0,.007744*
20,1,0.0,0.0,.007744,.006453,-.007744,0.0*
1,1,0.0,.006453,-.007744*
1,1,0.0,.00413,-.002323*
20,1,0.0,.00413,-.002323,-.00413,-.002323,0.0*
1,1,0.0,-.00413,-.002323*
%
%ADD13MACRO13*%
%LPD*%
G75*
G54D10*
X-25071Y240556D03*
X44488Y24705D03*
X29921D03*
X44488Y65059D03*
X29921D03*
G54D11*
X-25071Y251806D03*
X-4724Y4724D03*
X-2500Y167500D03*
X428346Y4724D03*
X427559Y170079D03*
G54D12*
X-25071Y263056D03*
X227500Y75000D03*
Y65000D03*
Y55000D03*
Y95000D03*
Y85000D03*
X337500Y152500D03*
X327500D03*
X317500D03*
X362992Y75354D03*
Y65354D03*
Y105354D03*
Y95354D03*
Y85354D03*
X357500Y152500D03*
X347500D03*
G54D13*
X-25071Y274306D03*
X65000Y127500D03*
X95000D03*
X327500Y35000D03*
X332500Y127500D03*
X345000D03*
X357500Y35000D03*
G54D14*
X-25071Y285556D03*
X72500Y20000D03*
X100000Y83250D03*
X122500Y40000D03*
X117500Y57500D03*
X135000Y90000D03*
X128201Y99925D03*
Y85000D03*
X107949Y80449D03*
X110748Y86752D03*
X130000Y117500D03*
X143949Y102500D03*
X137500D03*
Y117500D03*
X155000Y110000D03*
X165000Y107500D03*
X252500Y55000D03*
X277500Y95000D03*
X275000Y110000D03*
X282500Y147500D03*
X312500Y65000D03*
Y50000D03*
X300000Y60000D03*
X306800Y84300D03*
Y99300D03*
X302500Y95000D03*
X342500Y75000D03*
Y60000D03*
X340000Y87500D03*
X362500Y55000D03*
M02*
