G04 ================== begin FILE IDENTIFICATION RECORD ==================*
G04 Layout Name:  C:/Users/user/Desktop/avrusb500/Allegro/allegro/AVRUSB500_0729.brd*
G04 Film Name:    metalT*
G04 File Format:  Gerber RS274X*
G04 File Origin:  Cadence Allegro 17.2-P019*
G04 Origin Date:  Mon Jul 29 16:47:21 2019*
G04 *
G04 Layer:  PIN/PASTEMASK_TOP*
G04 Layer:  PACKAGE GEOMETRY/PASTEMASK_TOP*
G04 *
G04 Offset:    (0.0000 0.0000)*
G04 Mirror:    No*
G04 Mode:      Positive*
G04 Rotation:  0*
G04 FullContactRelief:  No*
G04 UndefLineWidth:     0.0000*
G04 ================== end FILE IDENTIFICATION RECORD ====================*
%FSLAX25Y25*MOIN*%
%IR0*IPPOS*OFA0.00000B0.00000*MIA0B0*SFA1.00000B1.00000*%
%ADD11R,.06772X.015748*%
%ADD13O,.017988X.07*%
%ADD16O,.07X.017988*%
%ADD14R,.017988X.07*%
%ADD15R,.07X.017988*%
%ADD10R,.06772X.043311*%
%ADD12R,.059X.112*%
%ADD17R,.112X.059*%
%LPD*%
G75*
G54D10*
X44488Y35827D03*
Y53937D03*
G54D11*
Y39764D03*
Y42323D03*
Y50000D03*
Y47441D03*
Y44882D03*
G54D12*
X72500Y30000D03*
Y55000D03*
Y72500D03*
Y90000D03*
X70700Y147500D03*
X89300Y30000D03*
Y55000D03*
Y72500D03*
Y90000D03*
X87500Y147500D03*
X132500Y40000D03*
X149300D03*
X182500Y37500D03*
X184252Y76378D03*
Y56693D03*
Y96063D03*
X199300Y37500D03*
X201052Y76378D03*
Y56693D03*
Y96063D03*
X285000Y35000D03*
X301800D03*
G54D13*
X128201Y74752D03*
X131350Y108201D03*
X128201D03*
X134500Y74752D03*
X137650D03*
X140799D03*
X143949D03*
X147098D03*
X150248D03*
Y108201D03*
X147098D03*
X143949D03*
X140799D03*
X137650D03*
X320701Y69752D03*
X327000D03*
X330150D03*
X333299D03*
X336449D03*
X339598D03*
X342748D03*
Y103201D03*
X339598D03*
X336449D03*
X333299D03*
X330150D03*
X323850D03*
X320701D03*
G54D14*
X131350Y74752D03*
X134500Y108201D03*
X323850Y69752D03*
X327000Y103201D03*
G54D15*
X122500Y102500D03*
X155949Y89902D03*
X315000Y97500D03*
X348449Y84902D03*
G54D16*
X122500Y99350D03*
Y96201D03*
Y93051D03*
Y89902D03*
Y86752D03*
Y83598D03*
Y80449D03*
X155949D03*
Y83598D03*
Y86752D03*
Y93051D03*
Y96201D03*
Y99350D03*
Y102500D03*
X315000Y94350D03*
Y91201D03*
Y88051D03*
Y84902D03*
Y81752D03*
Y78598D03*
Y75449D03*
X348449D03*
Y78598D03*
Y81752D03*
Y88051D03*
Y91201D03*
Y94350D03*
Y97500D03*
G54D17*
X137500Y155000D03*
Y138200D03*
X170000Y155000D03*
Y138200D03*
X200000Y155000D03*
Y138200D03*
X265000Y55000D03*
Y71800D03*
Y95700D03*
Y112500D03*
Y133200D03*
Y150000D03*
X295000Y67500D03*
Y84300D03*
Y112500D03*
Y129300D03*
X365000Y120000D03*
Y136800D03*
X387500Y33200D03*
Y50000D03*
X390000Y120000D03*
Y136800D03*
M02*
