G04 ================== begin FILE IDENTIFICATION RECORD ==================*
G04 Layout Name:  C:/Users/user/Desktop/avrusb500/Allegro/allegro/AVRUSB500_0729.brd*
G04 Film Name:    SilkT*
G04 File Format:  Gerber RS274X*
G04 File Origin:  Cadence Allegro 17.2-P019*
G04 Origin Date:  Mon Jul 29 16:47:21 2019*
G04 *
G04 Layer:  REF DES/SILKSCREEN_TOP*
G04 Layer:  PACKAGE GEOMETRY/SILKSCREEN_TOP*
G04 Layer:  BOARD GEOMETRY/SILKSCREEN_TOP*
G04 *
G04 Offset:    (0.0000 0.0000)*
G04 Mirror:    No*
G04 Mode:      Positive*
G04 Rotation:  0*
G04 FullContactRelief:  No*
G04 UndefLineWidth:     0.2000*
G04 ================== end FILE IDENTIFICATION RECORD ====================*
%FSLAX25Y25*MOIN*%
%IR0*IPPOS*OFA0.00000B0.00000*MIA0B0*SFA1.00000B1.00000*%
%ADD10C,.007874*%
%ADD11C,.007992*%
%ADD12C,.01*%
%ADD13C,.006*%
G75*
%LPD*%
G75*
G36*
G01X51575Y69685D02*
X23228D01*
Y19685D01*
X51575D01*
Y69685D01*
G37*
G54D10*
G01X27681Y97331D02*
X27366Y97567D01*
X26998Y97724D01*
X26578D01*
X26106Y97488D01*
X25739Y97094D01*
X25476Y96622D01*
X25266Y95835D01*
X25214Y95126D01*
X25319Y94417D01*
X25476Y93945D01*
X25791Y93472D01*
X26159Y93157D01*
X26526Y93000D01*
X26893D01*
X27261Y93157D01*
X27576Y93394D01*
X27838Y93709D01*
G01X29381Y93551D02*
X29749Y93157D01*
X30169Y93000D01*
X30589Y93157D01*
X30956Y93630D01*
X31219Y94339D01*
X31324Y95047D01*
Y95913D01*
X31219Y96622D01*
X30956Y97252D01*
X30641Y97567D01*
X30274Y97724D01*
X29854Y97567D01*
X29539Y97252D01*
X29329Y96780D01*
X29224Y96150D01*
X29329Y95598D01*
X29592Y95047D01*
X29907Y94732D01*
X30274Y94654D01*
X30694Y94811D01*
X31009Y95205D01*
X31324Y95913D01*
G01X30181Y129831D02*
X29866Y130067D01*
X29498Y130224D01*
X29078D01*
X28606Y129988D01*
X28239Y129594D01*
X27976Y129122D01*
X27766Y128335D01*
X27714Y127626D01*
X27819Y126917D01*
X27976Y126445D01*
X28291Y125972D01*
X28659Y125657D01*
X29026Y125500D01*
X29393D01*
X29761Y125657D01*
X30076Y125894D01*
X30338Y126209D01*
G01X31619D02*
X31934Y125815D01*
X32302Y125579D01*
X32774Y125500D01*
X33246Y125657D01*
X33614Y125972D01*
X33876Y126524D01*
X33929Y127154D01*
X33824Y127783D01*
X33561Y128177D01*
X33194Y128492D01*
X32826Y128571D01*
X32459Y128492D01*
X31987Y128177D01*
X32144Y130224D01*
X33561D01*
G01X35850Y153138D02*
X35535Y153374D01*
X35168Y153531D01*
X34748D01*
X34275Y153295D01*
X33908Y152902D01*
X33645Y152429D01*
X33435Y151642D01*
X33383Y150933D01*
X33488Y150224D01*
X33645Y149752D01*
X33960Y149280D01*
X34328Y148965D01*
X34695Y148807D01*
X35063D01*
X35430Y148965D01*
X35745Y149201D01*
X36007Y149516D01*
G01X37446Y150776D02*
X37813Y151327D01*
X38128Y151642D01*
X38548Y151799D01*
X38916Y151642D01*
X39178Y151327D01*
X39388Y150854D01*
X39441Y150303D01*
X39388Y149831D01*
X39178Y149358D01*
X38863Y148965D01*
X38496Y148807D01*
X38076Y148965D01*
X37708Y149437D01*
X37498Y150146D01*
X37446Y150933D01*
X37551Y151957D01*
X37708Y152508D01*
X37971Y153059D01*
X38338Y153453D01*
X38706Y153531D01*
X39073Y153374D01*
X39336Y152980D01*
G01X67425Y13200D02*
Y17924D01*
X68737D01*
X69157Y17688D01*
X69420Y17373D01*
X69525Y16743D01*
X69420Y16113D01*
X69105Y15720D01*
X68737Y15483D01*
X67425D01*
G01X68737D02*
X69525Y13200D01*
G01X72118D02*
X72223Y14224D01*
X72380Y15090D01*
X72590Y15877D01*
X72853Y16743D01*
X73273Y17924D01*
X71173D01*
G01X67425Y38200D02*
Y42924D01*
X68737D01*
X69157Y42688D01*
X69420Y42373D01*
X69525Y41743D01*
X69420Y41113D01*
X69105Y40720D01*
X68737Y40483D01*
X67425D01*
G01X68737D02*
X69525Y38200D01*
G01X72223D02*
X72590Y38279D01*
X73010Y38515D01*
X73273Y38909D01*
X73378Y39460D01*
X73273Y40011D01*
X72958Y40483D01*
X72485Y40720D01*
X71960D01*
X71645Y40877D01*
X71383Y41271D01*
X71278Y41822D01*
X71435Y42373D01*
X71803Y42767D01*
X72223Y42924D01*
X72643Y42767D01*
X73010Y42373D01*
X73168Y41822D01*
X73063Y41271D01*
X72800Y40877D01*
X72485Y40720D01*
X71960D01*
X71488Y40483D01*
X71173Y40011D01*
X71068Y39460D01*
X71173Y38909D01*
X71435Y38515D01*
X71856Y38279D01*
X72223Y38200D01*
G01X56457Y66404D02*
X55984Y66142D01*
X55669Y65827D01*
X55512Y65459D01*
X55669Y65039D01*
X55984Y64724D01*
X56457Y64409D01*
X57087Y64304D01*
X60236D01*
G01X56220Y62761D02*
X55827Y62446D01*
X55591Y62079D01*
X55512Y61606D01*
X55669Y61134D01*
X55984Y60767D01*
X56535Y60504D01*
X57165Y60452D01*
X57795Y60556D01*
X58189Y60819D01*
X58504Y61186D01*
X58583Y61554D01*
X58504Y61921D01*
X58189Y62394D01*
X60236Y62236D01*
Y60819D01*
G01X67425Y73200D02*
Y77924D01*
X68737D01*
X69157Y77688D01*
X69420Y77373D01*
X69525Y76743D01*
X69420Y76113D01*
X69105Y75720D01*
X68737Y75483D01*
X67425D01*
G01X68737D02*
X69525Y73200D01*
G01X71226Y75169D02*
X71593Y75720D01*
X71908Y76035D01*
X72328Y76192D01*
X72695Y76035D01*
X72958Y75720D01*
X73168Y75247D01*
X73220Y74696D01*
X73168Y74224D01*
X72958Y73751D01*
X72643Y73357D01*
X72275Y73200D01*
X71856Y73357D01*
X71488Y73830D01*
X71278Y74539D01*
X71226Y75326D01*
X71330Y76350D01*
X71488Y76901D01*
X71750Y77452D01*
X72118Y77846D01*
X72485Y77924D01*
X72853Y77767D01*
X73115Y77373D01*
G01X67425Y55700D02*
Y60424D01*
X68737D01*
X69157Y60188D01*
X69420Y59873D01*
X69525Y59243D01*
X69420Y58613D01*
X69105Y58220D01*
X68737Y57983D01*
X67425D01*
G01X68737D02*
X69525Y55700D01*
G01X71068Y56409D02*
X71383Y56015D01*
X71750Y55779D01*
X72223Y55700D01*
X72695Y55857D01*
X73063Y56172D01*
X73325Y56724D01*
X73378Y57354D01*
X73273Y57983D01*
X73010Y58377D01*
X72643Y58692D01*
X72275Y58771D01*
X71908Y58692D01*
X71435Y58377D01*
X71593Y60424D01*
X73010D01*
G01X71370Y137937D02*
Y140063D01*
X70320Y142661D01*
G01X72420D02*
X71370Y140063D01*
G01X74121Y141874D02*
X74436Y142346D01*
X74803Y142583D01*
X75223Y142661D01*
X75748Y142504D01*
X76115Y142110D01*
X76220Y141638D01*
X76168Y141165D01*
X75958Y140772D01*
X74908Y139984D01*
X74436Y139433D01*
X74121Y138646D01*
X74016Y137937D01*
X76220D01*
G01X92575Y164300D02*
Y159576D01*
X91263D01*
X90843Y159812D01*
X90580Y160127D01*
X90475Y160757D01*
X90580Y161387D01*
X90895Y161780D01*
X91263Y162017D01*
X92575D01*
G01X91263D02*
X90475Y164300D01*
G01X87777D02*
Y159576D01*
X88407Y160520D01*
G01Y164300D02*
X87147D01*
G01X129630Y27531D02*
X129315Y27767D01*
X128947Y27924D01*
X128527D01*
X128055Y27688D01*
X127687Y27294D01*
X127425Y26822D01*
X127215Y26035D01*
X127163Y25326D01*
X127267Y24617D01*
X127425Y24145D01*
X127740Y23672D01*
X128107Y23357D01*
X128475Y23200D01*
X128842D01*
X129210Y23357D01*
X129525Y23594D01*
X129787Y23909D01*
G01X132853Y23200D02*
Y27924D01*
X130911Y24539D01*
X133535D01*
G01X125634Y127513D02*
X122248D01*
X121539Y127303D01*
X121067Y126883D01*
X120909Y126358D01*
X121067Y125833D01*
X121539Y125413D01*
X122248Y125204D01*
X125634D01*
G01X120909Y122610D02*
X125634D01*
X124689Y123240D01*
G01X120909D02*
Y121980D01*
G01X125031Y157870D02*
X125267Y158185D01*
X125424Y158553D01*
Y158973D01*
X125188Y159445D01*
X124794Y159813D01*
X124322Y160075D01*
X123535Y160285D01*
X122826Y160337D01*
X122117Y160233D01*
X121645Y160075D01*
X121172Y159760D01*
X120857Y159393D01*
X120700Y159025D01*
Y158658D01*
X120857Y158290D01*
X121094Y157975D01*
X121409Y157713D01*
G01X120700Y155277D02*
X125424D01*
X124480Y155907D01*
G01X120700D02*
Y154647D01*
G01X157531Y157870D02*
X157767Y158185D01*
X157924Y158553D01*
Y158973D01*
X157688Y159445D01*
X157294Y159813D01*
X156822Y160075D01*
X156035Y160285D01*
X155326Y160337D01*
X154617Y160233D01*
X154145Y160075D01*
X153672Y159760D01*
X153357Y159393D01*
X153200Y159025D01*
Y158658D01*
X153357Y158290D01*
X153594Y157975D01*
X153909Y157713D01*
G01X157137Y156274D02*
X157609Y155959D01*
X157846Y155592D01*
X157924Y155172D01*
X157767Y154647D01*
X157373Y154280D01*
X156901Y154175D01*
X156428Y154227D01*
X156035Y154437D01*
X155247Y155487D01*
X154696Y155959D01*
X153909Y156274D01*
X153200Y156380D01*
Y154175D01*
G01X177425Y20700D02*
Y25424D01*
X178737D01*
X179157Y25188D01*
X179420Y24873D01*
X179525Y24243D01*
X179420Y23613D01*
X179105Y23220D01*
X178737Y22983D01*
X177425D01*
G01X178737D02*
X179525Y20700D01*
G01X182223D02*
Y25424D01*
X181593Y24480D01*
G01Y20700D02*
X182853D01*
G01X186601D02*
Y25424D01*
X184659Y22039D01*
X187283D01*
G01X179177Y39893D02*
Y44617D01*
X180489D01*
X180909Y44381D01*
X181172Y44066D01*
X181277Y43436D01*
X181172Y42806D01*
X180857Y42413D01*
X180489Y42176D01*
X179177D01*
G01X180489D02*
X181277Y39893D01*
G01X184605D02*
Y44617D01*
X182663Y41231D01*
X185287D01*
G01X179177Y59578D02*
Y64302D01*
X180489D01*
X180909Y64066D01*
X181172Y63751D01*
X181277Y63121D01*
X181172Y62491D01*
X180857Y62098D01*
X180489Y61861D01*
X179177D01*
G01X180489D02*
X181277Y59578D01*
G01X182820Y60523D02*
X183135Y59972D01*
X183555Y59657D01*
X184027Y59578D01*
X184447Y59657D01*
X184867Y60050D01*
X185130Y60523D01*
X185182Y60995D01*
X185077Y61546D01*
X184710Y61940D01*
X184342Y62098D01*
X183870D01*
G01X184342D02*
X184657Y62334D01*
X184920Y62728D01*
X185025Y63200D01*
X184920Y63672D01*
X184657Y64066D01*
X184185Y64302D01*
X183712Y64224D01*
X183240Y63909D01*
G01X179177Y79263D02*
Y83987D01*
X180489D01*
X180909Y83751D01*
X181172Y83436D01*
X181277Y82806D01*
X181172Y82176D01*
X180857Y81783D01*
X180489Y81546D01*
X179177D01*
G01X180489D02*
X181277Y79263D01*
G01X182978Y83200D02*
X183293Y83672D01*
X183660Y83909D01*
X184080Y83987D01*
X184605Y83830D01*
X184972Y83436D01*
X185077Y82964D01*
X185025Y82491D01*
X184815Y82098D01*
X183765Y81310D01*
X183293Y80759D01*
X182978Y79972D01*
X182872Y79263D01*
X185077D01*
G01X187531Y157870D02*
X187767Y158185D01*
X187924Y158553D01*
Y158973D01*
X187688Y159445D01*
X187294Y159813D01*
X186822Y160075D01*
X186035Y160285D01*
X185326Y160337D01*
X184617Y160233D01*
X184145Y160075D01*
X183672Y159760D01*
X183357Y159393D01*
X183200Y159025D01*
Y158658D01*
X183357Y158290D01*
X183594Y157975D01*
X183909Y157713D01*
G01X184145Y156432D02*
X183594Y156117D01*
X183279Y155697D01*
X183200Y155225D01*
X183279Y154805D01*
X183672Y154385D01*
X184145Y154122D01*
X184617Y154070D01*
X185169Y154175D01*
X185562Y154542D01*
X185720Y154910D01*
Y155382D01*
G01Y154910D02*
X185956Y154595D01*
X186350Y154332D01*
X186822Y154227D01*
X187294Y154332D01*
X187688Y154595D01*
X187924Y155067D01*
X187846Y155540D01*
X187531Y156012D01*
G01X231038Y47610D02*
X230776Y48083D01*
X230461Y48398D01*
X230093Y48555D01*
X229673Y48398D01*
X229358Y48083D01*
X229043Y47610D01*
X228938Y46980D01*
Y43831D01*
G01X226240Y48555D02*
Y43831D01*
X226870Y44776D01*
G01Y48555D02*
X225610D01*
G01X252531Y115370D02*
X252767Y115685D01*
X252924Y116053D01*
Y116473D01*
X252688Y116945D01*
X252294Y117313D01*
X251822Y117575D01*
X251035Y117785D01*
X250326Y117837D01*
X249617Y117733D01*
X249145Y117575D01*
X248672Y117260D01*
X248357Y116893D01*
X248200Y116525D01*
Y116158D01*
X248357Y115790D01*
X248594Y115475D01*
X248909Y115213D01*
G01X248200Y112777D02*
X252924D01*
X251980Y113407D01*
G01X248200D02*
Y112147D01*
G01X252924Y109029D02*
X252767Y109449D01*
X252373Y109764D01*
X251901Y109974D01*
X251271Y110131D01*
X250562Y110184D01*
X249854Y110131D01*
X249224Y109974D01*
X248751Y109764D01*
X248357Y109449D01*
X248200Y109029D01*
X248357Y108609D01*
X248751Y108294D01*
X249224Y108084D01*
X249854Y107927D01*
X250562Y107874D01*
X251271Y107927D01*
X251901Y108084D01*
X252373Y108294D01*
X252767Y108609D01*
X252924Y109029D01*
G01X248200Y155075D02*
X252924D01*
Y153763D01*
X252688Y153343D01*
X252373Y153080D01*
X251743Y152975D01*
X251113Y153080D01*
X250720Y153395D01*
X250483Y153763D01*
Y155075D01*
G01Y153763D02*
X248200Y152975D01*
G01Y150277D02*
X252924D01*
X251980Y150907D01*
G01X248200D02*
Y149647D01*
G01X252924Y146529D02*
X252767Y146949D01*
X252373Y147264D01*
X251901Y147474D01*
X251271Y147631D01*
X250562Y147684D01*
X249854Y147631D01*
X249224Y147474D01*
X248751Y147264D01*
X248357Y146949D01*
X248200Y146529D01*
X248357Y146109D01*
X248751Y145794D01*
X249224Y145584D01*
X249854Y145427D01*
X250562Y145374D01*
X251271Y145427D01*
X251901Y145584D01*
X252373Y145794D01*
X252767Y146109D01*
X252924Y146529D01*
G01X282130Y22531D02*
X281815Y22767D01*
X281447Y22924D01*
X281027D01*
X280555Y22688D01*
X280187Y22294D01*
X279925Y21822D01*
X279715Y21035D01*
X279663Y20326D01*
X279767Y19617D01*
X279925Y19145D01*
X280240Y18672D01*
X280607Y18357D01*
X280975Y18200D01*
X281342D01*
X281710Y18357D01*
X282025Y18594D01*
X282287Y18909D01*
G01X284618Y18200D02*
X284723Y19224D01*
X284880Y20090D01*
X285090Y20877D01*
X285353Y21743D01*
X285773Y22924D01*
X283673D01*
G01X281800Y49925D02*
X277076D01*
Y51237D01*
X277312Y51657D01*
X277627Y51920D01*
X278257Y52025D01*
X278887Y51920D01*
X279280Y51605D01*
X279517Y51237D01*
Y49925D01*
G01Y51237D02*
X281800Y52025D01*
G01X281249Y53830D02*
X281643Y54198D01*
X281800Y54618D01*
X281643Y55038D01*
X281170Y55405D01*
X280461Y55668D01*
X279753Y55773D01*
X278887D01*
X278178Y55668D01*
X277548Y55405D01*
X277233Y55090D01*
X277076Y54723D01*
X277233Y54303D01*
X277548Y53988D01*
X278020Y53778D01*
X278650Y53673D01*
X279202Y53778D01*
X279753Y54041D01*
X280068Y54356D01*
X280146Y54723D01*
X279989Y55143D01*
X279595Y55458D01*
X278887Y55773D01*
G01X311800Y62425D02*
X307076D01*
Y63737D01*
X307312Y64157D01*
X307627Y64420D01*
X308257Y64525D01*
X308887Y64420D01*
X309280Y64105D01*
X309517Y63737D01*
Y62425D01*
G01Y63737D02*
X311800Y64525D01*
G01Y67223D02*
X307076D01*
X308020Y66593D01*
G01X311800D02*
Y67853D01*
G01X311091Y69816D02*
X311485Y70131D01*
X311721Y70498D01*
X311800Y70971D01*
X311643Y71443D01*
X311328Y71811D01*
X310776Y72073D01*
X310146Y72126D01*
X309517Y72021D01*
X309123Y71758D01*
X308808Y71391D01*
X308729Y71023D01*
X308808Y70656D01*
X309123Y70183D01*
X307076Y70341D01*
Y71758D01*
G01X311800Y107425D02*
X307076D01*
Y108737D01*
X307312Y109157D01*
X307627Y109420D01*
X308257Y109525D01*
X308887Y109420D01*
X309280Y109105D01*
X309517Y108737D01*
Y107425D01*
G01Y108737D02*
X311800Y109525D01*
G01Y112223D02*
X307076D01*
X308020Y111593D01*
G01X311800D02*
Y112853D01*
G01X310855Y114816D02*
X311406Y115131D01*
X311721Y115551D01*
X311800Y116023D01*
X311721Y116443D01*
X311328Y116863D01*
X310855Y117126D01*
X310383Y117178D01*
X309831Y117073D01*
X309438Y116706D01*
X309280Y116338D01*
Y115866D01*
G01Y116338D02*
X309044Y116653D01*
X308650Y116916D01*
X308178Y117021D01*
X307706Y116916D01*
X307312Y116653D01*
X307076Y116181D01*
X307154Y115708D01*
X307469Y115236D01*
G01X318134Y121988D02*
Y120728D01*
G01Y121358D02*
X313409D01*
G01Y121988D02*
Y120728D01*
G01X317740Y116456D02*
X317976Y116770D01*
X318134Y117138D01*
Y117558D01*
X317898Y118030D01*
X317504Y118398D01*
X317031Y118660D01*
X316244Y118870D01*
X315535Y118922D01*
X314827Y118818D01*
X314354Y118660D01*
X313882Y118345D01*
X313567Y117978D01*
X313409Y117610D01*
Y117243D01*
X313567Y116875D01*
X313803Y116560D01*
X314118Y116298D01*
G01X313409Y113862D02*
X318134D01*
X317189Y114492D01*
G01X313409D02*
Y113232D01*
G01X310110Y148962D02*
X310583Y149224D01*
X310898Y149539D01*
X311055Y149907D01*
X310898Y150327D01*
X310583Y150642D01*
X310110Y150957D01*
X309480Y151062D01*
X306331D01*
G01X310110Y152605D02*
X310661Y152920D01*
X310976Y153340D01*
X311055Y153812D01*
X310976Y154232D01*
X310583Y154652D01*
X310110Y154915D01*
X309638Y154967D01*
X309087Y154862D01*
X308693Y154495D01*
X308535Y154127D01*
Y153655D01*
G01Y154127D02*
X308299Y154442D01*
X307906Y154705D01*
X307433Y154810D01*
X306961Y154705D01*
X306567Y154442D01*
X306331Y153970D01*
X306409Y153497D01*
X306724Y153025D01*
G01X331463Y139189D02*
Y143913D01*
X332513D01*
X332933Y143677D01*
X333248Y143362D01*
X333511Y142890D01*
X333720Y142339D01*
X333773Y141551D01*
X333720Y140764D01*
X333511Y140213D01*
X333248Y139740D01*
X332933Y139425D01*
X332513Y139189D01*
X331463D01*
G01X336366D02*
Y143913D01*
X335736Y142969D01*
G01Y139189D02*
X336996D01*
G01X351130Y24563D02*
Y22437D01*
X352180Y19839D01*
G01X350080D02*
X351130Y22437D01*
G01X347382Y24563D02*
Y19839D01*
X348012Y20783D01*
G01Y24563D02*
X346752D01*
G01X375031Y52870D02*
X375267Y53185D01*
X375424Y53553D01*
Y53973D01*
X375188Y54445D01*
X374794Y54813D01*
X374322Y55075D01*
X373535Y55285D01*
X372826Y55337D01*
X372117Y55233D01*
X371645Y55075D01*
X371172Y54760D01*
X370857Y54393D01*
X370700Y54025D01*
Y53658D01*
X370857Y53290D01*
X371094Y52975D01*
X371409Y52713D01*
G01X370700Y50277D02*
X370779Y49910D01*
X371015Y49490D01*
X371409Y49227D01*
X371960Y49122D01*
X372511Y49227D01*
X372983Y49542D01*
X373220Y50015D01*
Y50540D01*
X373377Y50855D01*
X373771Y51117D01*
X374322Y51222D01*
X374873Y51065D01*
X375267Y50697D01*
X375424Y50277D01*
X375267Y49857D01*
X374873Y49490D01*
X374322Y49332D01*
X373771Y49437D01*
X373377Y49700D01*
X373220Y50015D01*
Y50540D01*
X372983Y51012D01*
X372511Y51327D01*
X371960Y51432D01*
X371409Y51327D01*
X371015Y51065D01*
X370779Y50644D01*
X370700Y50277D01*
G01X366530Y57965D02*
X366268Y58437D01*
X365953Y58752D01*
X365585Y58909D01*
X365165Y58752D01*
X364850Y58437D01*
X364535Y57965D01*
X364430Y57335D01*
Y54185D01*
G01X361102Y58909D02*
Y54185D01*
X363044Y57571D01*
X360420D01*
G01X406800Y114925D02*
X402076D01*
Y116237D01*
X402312Y116657D01*
X402627Y116920D01*
X403257Y117025D01*
X403887Y116920D01*
X404280Y116605D01*
X404517Y116237D01*
Y114925D01*
G01Y116237D02*
X406800Y117025D01*
G01Y119723D02*
X402076D01*
X403020Y119093D01*
G01X406800D02*
Y120353D01*
G01X402863Y122474D02*
X402391Y122789D01*
X402154Y123156D01*
X402076Y123576D01*
X402233Y124101D01*
X402627Y124468D01*
X403099Y124573D01*
X403572Y124521D01*
X403965Y124311D01*
X404753Y123261D01*
X405304Y122789D01*
X406091Y122474D01*
X406800Y122369D01*
Y124573D01*
G01X381800Y114925D02*
X377076D01*
Y116237D01*
X377312Y116657D01*
X377627Y116920D01*
X378257Y117025D01*
X378887Y116920D01*
X379280Y116605D01*
X379517Y116237D01*
Y114925D01*
G01Y116237D02*
X381800Y117025D01*
G01Y119723D02*
X377076D01*
X378020Y119093D01*
G01X381800D02*
Y120353D01*
G01Y123471D02*
X377076D01*
X378020Y122841D01*
G01X381800D02*
Y124101D01*
G01X30000Y83000D02*
Y92000D01*
X44500D01*
Y83000D01*
X30000D01*
G01X32500Y115500D02*
Y124500D01*
X47000D01*
Y115500D01*
X32500D01*
G01X38169Y138807D02*
Y147807D01*
X52669D01*
Y138807D01*
X38169D01*
G54D11*
G01X102500Y117500D02*
X57500D01*
G01D02*
Y137500D01*
G01D02*
X102500D01*
G01D02*
Y117500D01*
G01X222500Y49500D02*
Y100500D01*
G01X232500Y49500D02*
X222500D01*
G01Y100500D02*
X232500D01*
G01Y55000D02*
Y49500D01*
G01Y65000D02*
Y55000D01*
G01Y75000D02*
Y65000D01*
G01Y85000D02*
Y75000D01*
G01Y95000D02*
Y85000D01*
G01Y100500D02*
Y95000D01*
G01X312000Y157500D02*
X363000D01*
G01X312000Y147500D02*
Y157500D01*
G01X317500Y147500D02*
X312000D01*
G01X365000Y25000D02*
X320000D01*
G01D02*
Y45000D01*
G01D02*
X365000D01*
G01X326252Y127500D02*
G02X338748Y140000I12496J4D01*
G02Y115000I0J-12500D01*
G02X326252Y127500I0J12496D01*
G01X327500Y147500D02*
X317500D01*
G01X337500D02*
X327500D01*
G01X347500D02*
X337500D01*
G01X365000Y45000D02*
Y25000D01*
G01X357992Y59854D02*
Y110854D01*
G01X367992Y59854D02*
X357992D01*
G01X367992Y65354D02*
Y59854D01*
G01Y75354D02*
Y65354D01*
G01Y85354D02*
Y75354D01*
G01Y95354D02*
Y85354D01*
G01Y105354D02*
Y95354D01*
G01X357992Y110854D02*
X367992D01*
G01D02*
Y105354D01*
G01X363000Y157500D02*
Y147500D01*
G01X357500D02*
X347500D01*
G01X363000D02*
X357500D01*
G54D12*
G01X119850Y105228D02*
X125469D01*
G01X312350Y100228D02*
X317969D01*
G54D13*
G01X67200Y22000D02*
Y38000D01*
G01D02*
X94600D01*
G01Y22000D02*
X67200D01*
G01Y47000D02*
Y63000D01*
G01D02*
X94600D01*
G01Y47000D02*
X67200D01*
G01Y64500D02*
Y80500D01*
G01X94600Y64500D02*
X67200D01*
G01Y80500D02*
X94600D01*
G01X67200Y82000D02*
Y98000D01*
G01D02*
X94600D01*
G01Y82000D02*
X67200D01*
G01X92800Y139500D02*
X65400D01*
G01D02*
Y155500D01*
G01D02*
X92800D01*
G01X94600Y38000D02*
Y22000D01*
G01Y63000D02*
Y47000D01*
G01Y80500D02*
Y64500D01*
G01Y98000D02*
Y82000D01*
G01X92800Y155500D02*
Y139500D01*
G01X127200Y32000D02*
Y48000D01*
G01X154600Y32000D02*
X127200D01*
G01Y48000D02*
X154600D01*
G01X145500Y132900D02*
X129500D01*
G01D02*
Y160300D01*
G01D02*
X145500D01*
G01X154600Y48000D02*
Y32000D01*
G01X145500Y160300D02*
Y132900D01*
G01X178000D02*
X162000D01*
G01D02*
Y160300D01*
G01D02*
X178000D01*
G01X177200Y29500D02*
Y45500D01*
G01X204600Y29500D02*
X177200D01*
G01X178952Y68378D02*
Y84378D01*
G01X206352Y68378D02*
X178952D01*
G01Y48693D02*
Y64693D01*
G01D02*
X206352D01*
G01Y48693D02*
X178952D01*
G01X177200Y45500D02*
X204600D01*
G01X178952Y88063D02*
Y104063D01*
G01X206352Y88063D02*
X178952D01*
G01Y84378D02*
X206352D01*
G01X178952Y104063D02*
X206352D01*
G01X178000Y160300D02*
Y132900D01*
G01X208000D02*
X192000D01*
G01D02*
Y160300D01*
G01D02*
X208000D01*
G01X204600Y45500D02*
Y29500D01*
G01X206352Y84378D02*
Y68378D01*
G01Y64693D02*
Y48693D01*
G01Y104063D02*
Y88063D01*
G01X208000Y160300D02*
Y132900D01*
G01X279700Y27000D02*
Y43000D01*
G01D02*
X307100D01*
G01Y27000D02*
X279700D01*
G01X273000Y49700D02*
X257000D01*
G01D02*
Y77100D01*
G01X273000D02*
Y49700D01*
G01Y117800D02*
Y90400D01*
G01D02*
X257000D01*
G01D02*
Y117800D01*
G01Y77100D02*
X273000D01*
G01X257000Y117800D02*
X273000D01*
G01Y155300D02*
Y127900D01*
G01D02*
X257000D01*
G01D02*
Y155300D01*
G01D02*
X273000D01*
G01X307100Y43000D02*
Y27000D01*
G01X303000Y62200D02*
X287000D01*
G01D02*
Y89600D01*
G01X303000D02*
Y62200D01*
G01X287000Y89600D02*
X303000D01*
G01Y107200D02*
X287000D01*
G01D02*
Y134600D01*
G01X303000D02*
Y107200D01*
G01X287000Y134600D02*
X303000D01*
G01X373000Y114700D02*
X357000D01*
G01D02*
Y142100D01*
G01X373000D02*
Y114700D01*
G01X357000Y142100D02*
X373000D01*
G01X395500Y55300D02*
Y27900D01*
G01D02*
X379500D01*
G01D02*
Y55300D01*
G01D02*
X395500D01*
G01X398000Y114700D02*
X382000D01*
G01D02*
Y142100D01*
G01X398000D02*
Y114700D01*
G01X382000Y142100D02*
X398000D01*
M02*
