G04 ================== begin FILE IDENTIFICATION RECORD ==================*
G04 Layout Name:  C:/Users/user/Desktop/avrusb500/Allegro/allegro/AVRUSB500_0729.brd*
G04 Film Name:    SilkBottom*
G04 File Format:  Gerber RS274X*
G04 File Origin:  Cadence Allegro 17.2-P019*
G04 Origin Date:  Mon Jul 29 16:47:21 2019*
G04 *
G04 Layer:  MANUFACTURING/AUTOSILK_BOTTOM*
G04 *
G04 Offset:    (0.0000 0.0000)*
G04 Mirror:    No*
G04 Mode:      Positive*
G04 Rotation:  0*
G04 FullContactRelief:  No*
G04 UndefLineWidth:     0.0000*
G04 ================== end FILE IDENTIFICATION RECORD ====================*
%FSLAX25Y25*MOIN*%
%IR0*IPPOS*OFA0.00000B0.00000*MIA0B0*SFA1.00000B1.00000*%
%ADD10C,.007874*%
G75*
%LPD*%
G75*
G54D10*
G01X216641Y26772D02*
Y31496D01*
G01Y29213D02*
X216378Y29606D01*
X216115Y29843D01*
X215696Y29921D01*
X215381Y29843D01*
X215013Y29528D01*
X214856Y29055D01*
Y26772D01*
G01X213312Y29921D02*
X212682Y26772D01*
X212000Y29921D01*
X211318Y26772D01*
X210688Y29921D01*
G01X209144Y26772D02*
Y31496D01*
G01X207465Y29921D02*
X209144Y28110D01*
G01X208462Y28819D02*
X207359Y26772D01*
G01X204504D02*
X204819Y26850D01*
X205134Y27165D01*
X205344Y27717D01*
X205449Y28346D01*
X205344Y28976D01*
X205134Y29528D01*
X204819Y29843D01*
X204504Y29921D01*
X204189Y29843D01*
X203874Y29528D01*
X203664Y28976D01*
X203611Y28346D01*
X203664Y27717D01*
X203874Y27165D01*
X204189Y26850D01*
X204504Y26772D01*
G01X197008D02*
Y31496D01*
X197638Y30551D01*
G01Y26772D02*
X196378D01*
G01X194152Y27323D02*
X193785Y26929D01*
X193365Y26772D01*
X192945Y26929D01*
X192578Y27402D01*
X192315Y28110D01*
X192210Y28819D01*
Y29685D01*
X192315Y30394D01*
X192578Y31024D01*
X192893Y31339D01*
X193260Y31496D01*
X193680Y31339D01*
X193995Y31024D01*
X194205Y30551D01*
X194310Y29921D01*
X194205Y29370D01*
X193942Y28819D01*
X193627Y28504D01*
X193260Y28425D01*
X192840Y28583D01*
X192525Y28976D01*
X192210Y29685D01*
G01X189512Y31496D02*
X189932Y31339D01*
X190247Y30945D01*
X190457Y30472D01*
X190614Y29843D01*
X190667Y29134D01*
X190614Y28425D01*
X190457Y27795D01*
X190247Y27323D01*
X189932Y26929D01*
X189512Y26772D01*
X189092Y26929D01*
X188777Y27323D01*
X188567Y27795D01*
X188409Y28425D01*
X188357Y29134D01*
X188409Y29843D01*
X188567Y30472D01*
X188777Y30945D01*
X189092Y31339D01*
X189512Y31496D01*
G01X185869Y26772D02*
X185764Y27795D01*
X185606Y28661D01*
X185396Y29449D01*
X185134Y30315D01*
X184714Y31496D01*
X186814D01*
G01X182016Y26772D02*
Y31496D01*
X182646Y30551D01*
G01Y26772D02*
X181386D01*
G01X179160Y27323D02*
X178793Y26929D01*
X178373Y26772D01*
X177953Y26929D01*
X177585Y27402D01*
X177323Y28110D01*
X177218Y28819D01*
Y29685D01*
X177323Y30394D01*
X177585Y31024D01*
X177900Y31339D01*
X178268Y31496D01*
X178688Y31339D01*
X179003Y31024D01*
X179213Y30551D01*
X179318Y29921D01*
X179213Y29370D01*
X178950Y28819D01*
X178635Y28504D01*
X178268Y28425D01*
X177848Y28583D01*
X177533Y28976D01*
X177218Y29685D01*
M02*
