G04 ================== begin FILE IDENTIFICATION RECORD ==================*
G04 Layout Name:  C:/Users/user/Desktop/avrusb500/Allegro/allegro/AVRUSB500_0729.brd*
G04 Film Name:    SilkTop*
G04 File Format:  Gerber RS274X*
G04 File Origin:  Cadence Allegro 17.2-P019*
G04 Origin Date:  Mon Jul 29 16:47:21 2019*
G04 *
G04 Layer:  MANUFACTURING/AUTOSILK_TOP*
G04 *
G04 Offset:    (0.0000 0.0000)*
G04 Mirror:    No*
G04 Mode:      Positive*
G04 Rotation:  0*
G04 FullContactRelief:  No*
G04 UndefLineWidth:     0.0000*
G04 ================== end FILE IDENTIFICATION RECORD ====================*
%FSLAX25Y25*MOIN*%
%IR0*IPPOS*OFA0.00000B0.00000*MIA0B0*SFA1.00000B1.00000*%
%ADD10C,.007874*%
%ADD11C,.007992*%
%ADD12C,.01*%
%ADD13C,.006*%
G75*
%LPD*%
G75*
G54D10*
G01X17060Y70236D02*
X17323Y69764D01*
X17638Y69449D01*
X18005Y69291D01*
X18425Y69449D01*
X18740Y69764D01*
X19055Y70236D01*
X19160Y70866D01*
Y74016D01*
G01X20704Y70000D02*
X21019Y69606D01*
X21386Y69370D01*
X21858Y69291D01*
X22331Y69449D01*
X22698Y69764D01*
X22961Y70315D01*
X23013Y70945D01*
X22908Y71575D01*
X22646Y71969D01*
X22278Y72283D01*
X21911Y72362D01*
X21543Y72283D01*
X21071Y71969D01*
X21228Y74016D01*
X22646D01*
G01X64370Y130937D02*
Y133063D01*
X63320Y135661D01*
G01X65420D02*
X64370Y133063D01*
G01X67121Y134874D02*
X67436Y135346D01*
X67803Y135583D01*
X68223Y135661D01*
X68748Y135504D01*
X69115Y135110D01*
X69220Y134638D01*
X69168Y134165D01*
X68958Y133772D01*
X67908Y132984D01*
X67436Y132433D01*
X67121Y131646D01*
X67016Y130937D01*
X69220D01*
G01X98025Y27500D02*
Y32224D01*
X99337D01*
X99757Y31988D01*
X100020Y31673D01*
X100125Y31043D01*
X100020Y30413D01*
X99705Y30020D01*
X99337Y29783D01*
X98025D01*
G01X99337D02*
X100125Y27500D01*
G01X102718D02*
X102823Y28524D01*
X102980Y29390D01*
X103190Y30177D01*
X103453Y31043D01*
X103873Y32224D01*
X101773D01*
G01X98025Y52500D02*
Y57224D01*
X99337D01*
X99757Y56988D01*
X100020Y56673D01*
X100125Y56043D01*
X100020Y55413D01*
X99705Y55020D01*
X99337Y54783D01*
X98025D01*
G01X99337D02*
X100125Y52500D01*
G01X102823D02*
X103190Y52579D01*
X103610Y52815D01*
X103873Y53209D01*
X103978Y53760D01*
X103873Y54311D01*
X103558Y54783D01*
X103085Y55020D01*
X102560D01*
X102245Y55177D01*
X101983Y55571D01*
X101878Y56122D01*
X102035Y56673D01*
X102403Y57067D01*
X102823Y57224D01*
X103243Y57067D01*
X103610Y56673D01*
X103768Y56122D01*
X103663Y55571D01*
X103400Y55177D01*
X103085Y55020D01*
X102560D01*
X102088Y54783D01*
X101773Y54311D01*
X101668Y53760D01*
X101773Y53209D01*
X102035Y52815D01*
X102456Y52579D01*
X102823Y52500D01*
G01X77690Y158268D02*
Y162992D01*
X79003D01*
X79422Y162756D01*
X79685Y162441D01*
X79790Y161811D01*
X79685Y161181D01*
X79370Y160787D01*
X79003Y160551D01*
X77690D01*
G01X79003D02*
X79790Y158268D01*
G01X82488D02*
Y162992D01*
X81858Y162047D01*
G01Y158268D02*
X83118D01*
G01X121680Y116535D02*
Y113150D01*
X121890Y112441D01*
X122310Y111969D01*
X122835Y111811D01*
X123359Y111969D01*
X123780Y112441D01*
X123989Y113150D01*
Y116535D01*
G01X126583Y111811D02*
Y116535D01*
X125953Y115591D01*
G01Y111811D02*
X127213D01*
G01X123202Y161024D02*
X122887Y161260D01*
X122520Y161417D01*
X122100D01*
X121627Y161181D01*
X121260Y160787D01*
X120997Y160315D01*
X120787Y159528D01*
X120735Y158819D01*
X120840Y158110D01*
X120997Y157638D01*
X121312Y157165D01*
X121680Y156850D01*
X122047Y156693D01*
X122415D01*
X122782Y156850D01*
X123097Y157087D01*
X123359Y157402D01*
G01X125795Y156693D02*
Y161417D01*
X125165Y160472D01*
G01Y156693D02*
X126425D01*
G01X137730Y56831D02*
X137415Y57067D01*
X137047Y57224D01*
X136627D01*
X136155Y56988D01*
X135787Y56594D01*
X135525Y56122D01*
X135315Y55335D01*
X135263Y54626D01*
X135367Y53917D01*
X135525Y53445D01*
X135840Y52972D01*
X136207Y52657D01*
X136575Y52500D01*
X136942D01*
X137310Y52657D01*
X137625Y52894D01*
X137887Y53209D01*
G01X140953Y52500D02*
Y57224D01*
X139011Y53839D01*
X141635D01*
G01X157848Y159449D02*
X157533Y159685D01*
X157165Y159843D01*
X156745D01*
X156273Y159606D01*
X155906Y159213D01*
X155643Y158740D01*
X155433Y157953D01*
X155381Y157244D01*
X155485Y156535D01*
X155643Y156063D01*
X155958Y155591D01*
X156326Y155276D01*
X156693Y155118D01*
X157060D01*
X157428Y155276D01*
X157743Y155512D01*
X158005Y155827D01*
G01X159444Y159055D02*
X159759Y159528D01*
X160126Y159764D01*
X160546Y159843D01*
X161071Y159685D01*
X161438Y159291D01*
X161543Y158819D01*
X161491Y158346D01*
X161281Y157953D01*
X160231Y157165D01*
X159759Y156614D01*
X159444Y155827D01*
X159339Y155118D01*
X161543D01*
G01X180525Y20000D02*
Y24724D01*
X181837D01*
X182257Y24488D01*
X182520Y24173D01*
X182625Y23543D01*
X182520Y22913D01*
X182205Y22520D01*
X181837Y22283D01*
X180525D01*
G01X181837D02*
X182625Y20000D01*
G01X185323D02*
Y24724D01*
X184693Y23780D01*
G01Y20000D02*
X185953D01*
G01X189701D02*
Y24724D01*
X187759Y21339D01*
X190383D01*
G01X168241Y74016D02*
Y78740D01*
X169554D01*
X169974Y78504D01*
X170236Y78189D01*
X170341Y77559D01*
X170236Y76929D01*
X169921Y76535D01*
X169554Y76299D01*
X168241D01*
G01X169554D02*
X170341Y74016D01*
G01X171885Y74961D02*
X172200Y74409D01*
X172619Y74094D01*
X173092Y74016D01*
X173512Y74094D01*
X173932Y74488D01*
X174194Y74961D01*
X174247Y75433D01*
X174142Y75984D01*
X173774Y76378D01*
X173407Y76535D01*
X172934D01*
G01X173407D02*
X173722Y76772D01*
X173984Y77165D01*
X174089Y77638D01*
X173984Y78110D01*
X173722Y78504D01*
X173249Y78740D01*
X172777Y78661D01*
X172304Y78346D01*
G01X169029Y54331D02*
Y59055D01*
X170341D01*
X170761Y58819D01*
X171024Y58504D01*
X171129Y57874D01*
X171024Y57244D01*
X170709Y56850D01*
X170341Y56614D01*
X169029D01*
G01X170341D02*
X171129Y54331D01*
G01X174457D02*
Y59055D01*
X172515Y55669D01*
X175139D01*
G01X168241Y93701D02*
Y98425D01*
X169554D01*
X169974Y98189D01*
X170236Y97874D01*
X170341Y97244D01*
X170236Y96614D01*
X169921Y96220D01*
X169554Y95984D01*
X168241D01*
G01X169554D02*
X170341Y93701D01*
G01X172042Y97638D02*
X172357Y98110D01*
X172724Y98346D01*
X173144Y98425D01*
X173669Y98268D01*
X174037Y97874D01*
X174142Y97402D01*
X174089Y96929D01*
X173879Y96535D01*
X172830Y95748D01*
X172357Y95197D01*
X172042Y94409D01*
X171937Y93701D01*
X174142D01*
G01X186194Y158661D02*
X185879Y158898D01*
X185512Y159055D01*
X185092D01*
X184619Y158819D01*
X184252Y158425D01*
X183989Y157953D01*
X183780Y157165D01*
X183727Y156457D01*
X183832Y155748D01*
X183989Y155276D01*
X184304Y154803D01*
X184672Y154488D01*
X185039Y154331D01*
X185407D01*
X185774Y154488D01*
X186089Y154724D01*
X186352Y155039D01*
G01X187633Y155276D02*
X187948Y154724D01*
X188367Y154409D01*
X188840Y154331D01*
X189260Y154409D01*
X189680Y154803D01*
X189942Y155276D01*
X189995Y155748D01*
X189890Y156299D01*
X189522Y156693D01*
X189155Y156850D01*
X188682D01*
G01X189155D02*
X189470Y157087D01*
X189732Y157480D01*
X189837Y157953D01*
X189732Y158425D01*
X189470Y158819D01*
X188997Y159055D01*
X188525Y158976D01*
X188052Y158661D01*
G01X225525Y38445D02*
X225787Y37972D01*
X226102Y37657D01*
X226470Y37500D01*
X226890Y37657D01*
X227205Y37972D01*
X227520Y38445D01*
X227625Y39075D01*
Y42224D01*
G01X230323Y37500D02*
Y42224D01*
X229693Y41280D01*
G01Y37500D02*
X230953D01*
G01X263517Y79528D02*
Y84252D01*
X264830D01*
X265249Y84016D01*
X265512Y83701D01*
X265617Y83071D01*
X265512Y82441D01*
X265197Y82047D01*
X264830Y81811D01*
X263517D01*
G01X264830D02*
X265617Y79528D01*
G01X267422Y80079D02*
X267790Y79685D01*
X268210Y79528D01*
X268630Y79685D01*
X268997Y80157D01*
X269260Y80866D01*
X269365Y81575D01*
Y82441D01*
X269260Y83150D01*
X268997Y83780D01*
X268682Y84094D01*
X268315Y84252D01*
X267895Y84094D01*
X267580Y83780D01*
X267370Y83307D01*
X267265Y82677D01*
X267370Y82126D01*
X267633Y81575D01*
X267948Y81260D01*
X268315Y81181D01*
X268735Y81339D01*
X269050Y81732D01*
X269365Y82441D01*
G01X262572Y125591D02*
X262257Y125827D01*
X261890Y125984D01*
X261470D01*
X260997Y125748D01*
X260630Y125354D01*
X260367Y124882D01*
X260157Y124094D01*
X260105Y123386D01*
X260210Y122677D01*
X260367Y122205D01*
X260682Y121732D01*
X261050Y121417D01*
X261417Y121260D01*
X261785D01*
X262152Y121417D01*
X262467Y121654D01*
X262730Y121969D01*
G01X265165Y121260D02*
Y125984D01*
X264535Y125039D01*
G01Y121260D02*
X265795D01*
G01X268913Y125984D02*
X268493Y125827D01*
X268178Y125433D01*
X267969Y124961D01*
X267811Y124331D01*
X267759Y123622D01*
X267811Y122913D01*
X267969Y122283D01*
X268178Y121811D01*
X268493Y121417D01*
X268913Y121260D01*
X269333Y121417D01*
X269648Y121811D01*
X269858Y122283D01*
X270016Y122913D01*
X270068Y123622D01*
X270016Y124331D01*
X269858Y124961D01*
X269648Y125433D01*
X269333Y125827D01*
X268913Y125984D01*
G01X259580Y157480D02*
Y162205D01*
X260893D01*
X261312Y161969D01*
X261575Y161654D01*
X261680Y161024D01*
X261575Y160394D01*
X261260Y160000D01*
X260893Y159764D01*
X259580D01*
G01X260893D02*
X261680Y157480D01*
G01X264378D02*
Y162205D01*
X263748Y161260D01*
G01Y157480D02*
X265008D01*
G01X268126Y162205D02*
X267706Y162047D01*
X267391Y161654D01*
X267181Y161181D01*
X267024Y160551D01*
X266971Y159843D01*
X267024Y159134D01*
X267181Y158504D01*
X267391Y158031D01*
X267706Y157638D01*
X268126Y157480D01*
X268546Y157638D01*
X268861Y158031D01*
X269071Y158504D01*
X269228Y159134D01*
X269281Y159843D01*
X269228Y160551D01*
X269071Y161181D01*
X268861Y161654D01*
X268546Y162047D01*
X268126Y162205D01*
G01X287730Y19331D02*
X287415Y19567D01*
X287047Y19724D01*
X286627D01*
X286155Y19488D01*
X285787Y19094D01*
X285525Y18622D01*
X285315Y17835D01*
X285263Y17126D01*
X285367Y16417D01*
X285525Y15945D01*
X285840Y15472D01*
X286207Y15157D01*
X286575Y15000D01*
X286942D01*
X287310Y15157D01*
X287625Y15394D01*
X287887Y15709D01*
G01X290218Y15000D02*
X290323Y16024D01*
X290480Y16890D01*
X290690Y17677D01*
X290953Y18543D01*
X291373Y19724D01*
X289273D01*
G01X291863Y92126D02*
Y96850D01*
X293176D01*
X293596Y96614D01*
X293858Y96299D01*
X293963Y95669D01*
X293858Y95039D01*
X293543Y94646D01*
X293176Y94409D01*
X291863D01*
G01X293176D02*
X293963Y92126D01*
G01X296661D02*
Y96850D01*
X296031Y95906D01*
G01Y92126D02*
X297291D01*
G01X299255Y92835D02*
X299570Y92441D01*
X299937Y92205D01*
X300409Y92126D01*
X300882Y92283D01*
X301249Y92598D01*
X301512Y93150D01*
X301564Y93780D01*
X301459Y94409D01*
X301197Y94803D01*
X300830Y95118D01*
X300462Y95197D01*
X300094Y95118D01*
X299622Y94803D01*
X299780Y96850D01*
X301197D01*
G01X307106Y117260D02*
X308366D01*
G01X307736D02*
Y112535D01*
G01X307106D02*
X308366D01*
G01X312639Y116866D02*
X312324Y117102D01*
X311957Y117260D01*
X311537D01*
X311064Y117024D01*
X310697Y116630D01*
X310434Y116157D01*
X310224Y115370D01*
X310172Y114661D01*
X310277Y113953D01*
X310434Y113480D01*
X310749Y113008D01*
X311117Y112693D01*
X311484Y112535D01*
X311852D01*
X312219Y112693D01*
X312534Y112929D01*
X312796Y113244D01*
G01X315232Y112535D02*
Y117260D01*
X314602Y116315D01*
G01Y112535D02*
X315862D01*
G01X302887Y159213D02*
X303150Y158740D01*
X303465Y158425D01*
X303832Y158268D01*
X304252Y158425D01*
X304567Y158740D01*
X304882Y159213D01*
X304987Y159843D01*
Y162992D01*
G01X306530Y159213D02*
X306845Y158661D01*
X307265Y158346D01*
X307737Y158268D01*
X308157Y158346D01*
X308578Y158740D01*
X308840Y159213D01*
X308893Y159685D01*
X308787Y160236D01*
X308420Y160630D01*
X308052Y160787D01*
X307580D01*
G01X308052D02*
X308367Y161024D01*
X308630Y161417D01*
X308735Y161890D01*
X308630Y162362D01*
X308367Y162756D01*
X307895Y162992D01*
X307422Y162913D01*
X306950Y162598D01*
G01X291863Y137008D02*
Y141732D01*
X293176D01*
X293596Y141496D01*
X293858Y141181D01*
X293963Y140551D01*
X293858Y139921D01*
X293543Y139528D01*
X293176Y139291D01*
X291863D01*
G01X293176D02*
X293963Y137008D01*
G01X296661D02*
Y141732D01*
X296031Y140787D01*
G01Y137008D02*
X297291D01*
G01X299255Y137953D02*
X299570Y137402D01*
X299989Y137087D01*
X300462Y137008D01*
X300882Y137087D01*
X301302Y137480D01*
X301564Y137953D01*
X301617Y138425D01*
X301512Y138976D01*
X301144Y139370D01*
X300777Y139528D01*
X300304D01*
G01X300777D02*
X301092Y139764D01*
X301354Y140157D01*
X301459Y140630D01*
X301354Y141102D01*
X301092Y141496D01*
X300619Y141732D01*
X300147Y141654D01*
X299674Y141339D01*
G01X340945Y17323D02*
Y19449D01*
X339895Y22047D01*
G01X341995D02*
X340945Y19449D01*
G01X344693Y17323D02*
Y22047D01*
X344063Y21102D01*
G01Y17323D02*
X345323D01*
G01X335420Y107500D02*
Y112224D01*
X336470D01*
X336890Y111988D01*
X337205Y111673D01*
X337467Y111201D01*
X337677Y110650D01*
X337730Y109862D01*
X337677Y109075D01*
X337467Y108524D01*
X337205Y108051D01*
X336890Y107736D01*
X336470Y107500D01*
X335420D01*
G01X340323D02*
Y112224D01*
X339693Y111280D01*
G01Y107500D02*
X340953D01*
G01X360367Y53701D02*
X360630Y53228D01*
X360945Y52913D01*
X361312Y52756D01*
X361732Y52913D01*
X362047Y53228D01*
X362362Y53701D01*
X362467Y54331D01*
Y57480D01*
G01X365795Y52756D02*
Y57480D01*
X363853Y54094D01*
X366478D01*
G01X370525Y145000D02*
Y149724D01*
X371837D01*
X372257Y149488D01*
X372520Y149173D01*
X372625Y148543D01*
X372520Y147913D01*
X372205Y147520D01*
X371837Y147283D01*
X370525D01*
G01X371837D02*
X372625Y145000D01*
G01X375323D02*
Y149724D01*
X374693Y148780D01*
G01Y145000D02*
X375953D01*
G01X379071D02*
Y149724D01*
X378441Y148780D01*
G01Y145000D02*
X379701D01*
G01X385230Y64331D02*
X384915Y64567D01*
X384547Y64724D01*
X384127D01*
X383655Y64488D01*
X383287Y64094D01*
X383025Y63622D01*
X382815Y62835D01*
X382763Y62126D01*
X382867Y61417D01*
X383025Y60945D01*
X383340Y60472D01*
X383707Y60157D01*
X384075Y60000D01*
X384442D01*
X384810Y60157D01*
X385125Y60394D01*
X385387Y60709D01*
G01X387823Y60000D02*
X388190Y60079D01*
X388610Y60315D01*
X388873Y60709D01*
X388978Y61260D01*
X388873Y61811D01*
X388558Y62283D01*
X388085Y62520D01*
X387560D01*
X387245Y62677D01*
X386983Y63071D01*
X386878Y63622D01*
X387035Y64173D01*
X387403Y64567D01*
X387823Y64724D01*
X388243Y64567D01*
X388610Y64173D01*
X388768Y63622D01*
X388663Y63071D01*
X388400Y62677D01*
X388085Y62520D01*
X387560D01*
X387088Y62283D01*
X386773Y61811D01*
X386668Y61260D01*
X386773Y60709D01*
X387035Y60315D01*
X387456Y60079D01*
X387823Y60000D01*
G01X400525Y142500D02*
Y147224D01*
X401837D01*
X402257Y146988D01*
X402520Y146673D01*
X402625Y146043D01*
X402520Y145413D01*
X402205Y145020D01*
X401837Y144783D01*
X400525D01*
G01X401837D02*
X402625Y142500D01*
G01X405323D02*
Y147224D01*
X404693Y146280D01*
G01Y142500D02*
X405953D01*
G01X408074Y146437D02*
X408389Y146909D01*
X408756Y147146D01*
X409176Y147224D01*
X409701Y147067D01*
X410068Y146673D01*
X410173Y146201D01*
X410121Y145728D01*
X409911Y145335D01*
X408861Y144547D01*
X408389Y143996D01*
X408074Y143209D01*
X407969Y142500D01*
X410173D01*
G54D11*
G01X102500Y117500D02*
X57500D01*
G01D02*
Y137500D01*
G01D02*
X102500D01*
G01D02*
Y117500D01*
G01X232500Y49500D02*
X222500D01*
G01D02*
Y100500D01*
G01D02*
X232500D01*
G01Y75000D02*
Y65000D01*
G01D02*
Y55000D01*
G01D02*
Y49500D01*
G01Y100500D02*
Y95000D01*
G01D02*
Y85000D01*
G01D02*
Y75000D01*
G01X317500Y147500D02*
X312000D01*
G01D02*
Y157500D01*
G01D02*
X363000D01*
G01X320000Y25000D02*
Y45000D01*
G01X365000Y25000D02*
X320000D01*
G01Y45000D02*
X365000D01*
G01X338748Y140000D02*
G03X326252Y127500I0J-12496D01*
G01X338748Y115000D02*
G03Y140000I0J12500D01*
G01X326252Y127500D02*
G03X338748Y115000I12496J-4D01*
G01X347500Y147500D02*
X337500D01*
G01D02*
X327500D01*
G01D02*
X317500D01*
G01X365000Y45000D02*
Y25000D01*
G01X367992Y75354D02*
Y65354D01*
G01D02*
Y59854D01*
G01D02*
X357992D01*
G01D02*
Y110854D01*
G01X367992Y105354D02*
Y95354D01*
G01D02*
Y85354D01*
G01D02*
Y75354D01*
G01Y110854D02*
Y105354D01*
G01X357992Y110854D02*
X367992D01*
G01X363000Y147500D02*
X357500D01*
G01D02*
X347500D01*
G01X363000Y157500D02*
Y147500D01*
G54D12*
G01X119850Y105228D02*
X125469D01*
G01X312350Y100228D02*
X317969D01*
G54D13*
G01X94600Y22000D02*
X67200D01*
G01Y38000D02*
X94600D01*
G01X67200Y22000D02*
Y38000D01*
G01Y64500D02*
Y80500D01*
G01X94600Y64500D02*
X67200D01*
G01X94600Y47000D02*
X67200D01*
G01Y63000D02*
X94600D01*
G01X67200Y47000D02*
Y63000D01*
G01Y82000D02*
Y98000D01*
G01D02*
X94600D01*
G01Y82000D02*
X67200D01*
G01Y80500D02*
X94600D01*
G01X65400Y155500D02*
X92800D01*
G01X65400Y139500D02*
Y155500D01*
G01X92800Y139500D02*
X65400D01*
G01X94600Y38000D02*
Y22000D01*
G01Y80500D02*
Y64500D01*
G01Y63000D02*
Y47000D01*
G01Y98000D02*
Y82000D01*
G01X92800Y155500D02*
Y139500D01*
G01X154600Y32000D02*
X127200D01*
G01D02*
Y48000D01*
G01D02*
X154600D01*
G01X129500Y132900D02*
Y160300D01*
G01X145500Y132900D02*
X129500D01*
G01Y160300D02*
X145500D01*
G01X154600Y48000D02*
Y32000D01*
G01X145500Y160300D02*
Y132900D01*
G01X162000D02*
Y160300D01*
G01X178000Y132900D02*
X162000D01*
G01Y160300D02*
X178000D01*
G01X204600Y29500D02*
X177200D01*
G01D02*
Y45500D01*
G01X206352Y68378D02*
X178952D01*
G01D02*
Y84378D01*
G01X206352Y48693D02*
X178952D01*
G01Y64693D02*
X206352D01*
G01X178952Y48693D02*
Y64693D01*
G01X177200Y45500D02*
X204600D01*
G01X206352Y88063D02*
X178952D01*
G01D02*
Y104063D01*
G01Y84378D02*
X206352D01*
G01X178952Y104063D02*
X206352D01*
G01X178000Y160300D02*
Y132900D01*
G01X192000D02*
Y160300D01*
G01X208000Y132900D02*
X192000D01*
G01Y160300D02*
X208000D01*
G01X204600Y45500D02*
Y29500D01*
G01X206352Y84378D02*
Y68378D01*
G01Y64693D02*
Y48693D01*
G01Y104063D02*
Y88063D01*
G01X208000Y160300D02*
Y132900D01*
G01X307100Y27000D02*
X279700D01*
G01Y43000D02*
X307100D01*
G01X279700Y27000D02*
Y43000D01*
G01X273000Y77100D02*
Y49700D01*
G01X257000D02*
Y77100D01*
G01X273000Y49700D02*
X257000D01*
G01Y90400D02*
Y117800D01*
G01X273000Y90400D02*
X257000D01*
G01X273000Y117800D02*
Y90400D01*
G01X257000Y77100D02*
X273000D01*
G01X257000Y117800D02*
X273000D01*
G01X257000Y127900D02*
Y155300D01*
G01X273000Y127900D02*
X257000D01*
G01X273000Y155300D02*
Y127900D01*
G01X257000Y155300D02*
X273000D01*
G01X307100Y43000D02*
Y27000D01*
G01X303000Y89600D02*
Y62200D01*
G01X287000D02*
Y89600D01*
G01X303000Y62200D02*
X287000D01*
G01Y89600D02*
X303000D01*
G01Y134600D02*
Y107200D01*
G01X287000D02*
Y134600D01*
G01X303000Y107200D02*
X287000D01*
G01Y134600D02*
X303000D01*
G01X373000Y142100D02*
Y114700D01*
G01X357000D02*
Y142100D01*
G01X373000Y114700D02*
X357000D01*
G01Y142100D02*
X373000D01*
G01X379500Y27900D02*
Y55300D01*
G01X395500Y27900D02*
X379500D01*
G01X395500Y55300D02*
Y27900D01*
G01X379500Y55300D02*
X395500D01*
G01X398000Y142100D02*
Y114700D01*
G01X382000D02*
Y142100D01*
G01X398000Y114700D02*
X382000D01*
G01Y142100D02*
X398000D01*
M02*
