G04 ================== begin FILE IDENTIFICATION RECORD ==================*
G04 Layout Name:  C:/Users/user/Desktop/avrusb500/Allegro/allegro/AVRUSB500_0729.brd*
G04 Film Name:    solderT*
G04 File Format:  Gerber RS274X*
G04 File Origin:  Cadence Allegro 17.2-P019*
G04 Origin Date:  Mon Jul 29 16:47:21 2019*
G04 *
G04 Layer:  VIA CLASS/SOLDERMASK_TOP*
G04 Layer:  PIN/SOLDERMASK_TOP*
G04 Layer:  PACKAGE GEOMETRY/SOLDERMASK_TOP*
G04 Layer:  BOARD GEOMETRY/SOLDERMASK_TOP*
G04 *
G04 Offset:    (0.0000 0.0000)*
G04 Mirror:    No*
G04 Mode:      Positive*
G04 Rotation:  0*
G04 FullContactRelief:  No*
G04 UndefLineWidth:     0.0000*
G04 ================== end FILE IDENTIFICATION RECORD ====================*
%FSLAX25Y25*MOIN*%
%IR0*IPPOS*OFA0.00000B0.00000*MIA0B0*SFA1.00000B1.00000*%
%ADD13O,.074799X.04724*%
%ADD12R,.06772X.015748*%
%ADD18O,.017988X.07*%
%ADD21O,.07X.017988*%
%ADD19R,.017988X.07*%
%ADD20R,.07X.017988*%
%ADD11R,.06772X.043311*%
%ADD14R,.05X.087012*%
%ADD17C,.052012*%
%ADD16C,.044016*%
%ADD25R,.052012X.052012*%
%ADD23C,.062012*%
%ADD10C,.145*%
%ADD24R,.062012X.062012*%
%ADD15R,.059X.112*%
%ADD22R,.112X.059*%
%LPD*%
G75*
G54D10*
X-4724Y4724D03*
X-2500Y167500D03*
X428346Y4724D03*
X427559Y170079D03*
G54D11*
X44488Y35827D03*
Y53937D03*
G54D20*
X122500Y102500D03*
X155949Y89902D03*
X315000Y97500D03*
X348449Y84902D03*
G54D21*
X122500Y99350D03*
Y96201D03*
Y93051D03*
Y89902D03*
Y86752D03*
Y83598D03*
Y80449D03*
X155949D03*
Y83598D03*
Y86752D03*
Y93051D03*
Y96201D03*
Y99350D03*
Y102500D03*
X315000Y94350D03*
Y91201D03*
Y88051D03*
Y84902D03*
Y81752D03*
Y78598D03*
Y75449D03*
X348449D03*
Y78598D03*
Y81752D03*
Y88051D03*
Y91201D03*
Y94350D03*
Y97500D03*
G54D12*
X44488Y39764D03*
Y42323D03*
Y50000D03*
Y47441D03*
Y44882D03*
G54D22*
X137500Y155000D03*
Y138200D03*
X170000Y155000D03*
Y138200D03*
X200000Y155000D03*
Y138200D03*
X265000Y55000D03*
Y71800D03*
Y95700D03*
Y112500D03*
Y133200D03*
Y150000D03*
X295000Y67500D03*
Y84300D03*
Y112500D03*
Y129300D03*
X365000Y120000D03*
Y136800D03*
X387500Y33200D03*
Y50000D03*
X390000Y120000D03*
Y136800D03*
G54D13*
X44488Y24705D03*
X29921D03*
X44488Y65059D03*
X29921D03*
G54D23*
X227500Y75000D03*
Y65000D03*
Y95000D03*
Y85000D03*
X337500Y152500D03*
X327500D03*
X362992Y75354D03*
Y105354D03*
Y95354D03*
Y85354D03*
X357500Y152500D03*
X347500D03*
G54D14*
X27500Y87500D03*
X30000Y120000D03*
X35669Y143307D03*
X47000Y87500D03*
X49500Y120000D03*
X55169Y143307D03*
G54D15*
X72500Y30000D03*
Y55000D03*
Y72500D03*
Y90000D03*
X70700Y147500D03*
X89300Y30000D03*
Y55000D03*
Y72500D03*
Y90000D03*
X87500Y147500D03*
X132500Y40000D03*
X149300D03*
X182500Y37500D03*
X184252Y76378D03*
Y56693D03*
Y96063D03*
X199300Y37500D03*
X201052Y76378D03*
Y56693D03*
Y96063D03*
X285000Y35000D03*
X301800D03*
G54D24*
X227500Y55000D03*
X317500Y152500D03*
X362992Y65354D03*
G54D25*
X332500Y127500D03*
G54D16*
X72500Y20000D03*
X55000Y60000D03*
X47000Y78000D03*
X100000Y83250D03*
X122500Y40000D03*
X117500Y57500D03*
X135000Y90000D03*
X128201Y99925D03*
Y85000D03*
X107949Y80449D03*
X110748Y86752D03*
X130000Y117500D03*
X143949Y102500D03*
X137500D03*
Y117500D03*
X155000Y110000D03*
X165000Y107500D03*
X252500Y55000D03*
X277500Y95000D03*
X275000Y110000D03*
X282500Y147500D03*
X312500Y65000D03*
Y50000D03*
X300000Y60000D03*
X306800Y84300D03*
Y99300D03*
X302500Y95000D03*
X342500Y75000D03*
Y60000D03*
X340000Y87500D03*
X362500Y55000D03*
G54D17*
X65000Y127500D03*
X95000D03*
X327500Y35000D03*
X345000Y127500D03*
X357500Y35000D03*
G54D18*
X128201Y74752D03*
X131350Y108201D03*
X128201D03*
X134500Y74752D03*
X137650D03*
X140799D03*
X143949D03*
X147098D03*
X150248D03*
Y108201D03*
X147098D03*
X143949D03*
X140799D03*
X137650D03*
X320701Y69752D03*
X327000D03*
X330150D03*
X333299D03*
X336449D03*
X339598D03*
X342748D03*
Y103201D03*
X339598D03*
X336449D03*
X333299D03*
X330150D03*
X323850D03*
X320701D03*
G54D19*
X131350Y74752D03*
X134500Y108201D03*
X323850Y69752D03*
X327000Y103201D03*
M02*
