G04 ================== begin FILE IDENTIFICATION RECORD ==================*
G04 Layout Name:  C:/Users/user/Desktop/avrusb500/Allegro/allegro/AVRUSB500_0729.brd*
G04 Film Name:    TOP*
G04 File Format:  Gerber RS274X*
G04 File Origin:  Cadence Allegro 17.2-P019*
G04 Origin Date:  Mon Jul 29 16:47:21 2019*
G04 *
G04 Layer:  ETCH/TOP*
G04 Layer:  PIN/TOP*
G04 Layer:  VIA CLASS/TOP*
G04 *
G04 Offset:    (0.0000 0.0000)*
G04 Mirror:    No*
G04 Mode:      Positive*
G04 Rotation:  0*
G04 FullContactRelief:  No*
G04 UndefLineWidth:     0.0000*
G04 ================== end FILE IDENTIFICATION RECORD ====================*
%FSLAX25Y25*MOIN*%
%IR0*IPPOS*OFA0.00000B0.00000*MIA0B0*SFA1.00000B1.00000*%
%ADD13O,.074799X.04724*%
%ADD12R,.06772X.015748*%
%ADD16C,.024016*%
%ADD10C,.025*%
%ADD18O,.017988X.07*%
%ADD21O,.07X.017988*%
%ADD19R,.017988X.07*%
%ADD20R,.07X.017988*%
%ADD11R,.06772X.043311*%
%ADD14R,.05X.087012*%
%ADD17C,.052012*%
%ADD25R,.052012X.052012*%
%ADD23C,.062012*%
%ADD24R,.062012X.062012*%
%ADD15R,.059X.112*%
%ADD22R,.112X.059*%
%ADD26C,.01*%
%ADD27C,.015*%
%ADD28C,.015039*%
%ADD29R,.200016X.200016*%
%ADD30C,.072031*%
G75*
%LPD*%
G75*
G36*
G01X139506Y72151D02*
G03X142093I1294J0D01*
G01Y77353D01*
G03X141965Y77913I-1294J0D01*
G01X141946Y77954D01*
Y89676D01*
X137424Y94198D01*
X125702D01*
X125661Y94217D01*
G03X125101Y94345I-560J-1166D01*
G01X123682D01*
G03X123646Y94377I-1191J-1286D01*
G01Y94907D01*
X125101D01*
G03X125661Y95035I0J1294D01*
G01X125702Y95054D01*
X145164D01*
X148245Y98135D01*
Y104999D01*
X148265Y105040D01*
G03X148392Y105600I-1166J560D01*
G01Y107441D01*
G03X148559Y107857I-1293J761D01*
G01X148596Y108012D01*
X148954D01*
Y105600D01*
G03X151542I1294J0D01*
G01Y107306D01*
X153571D01*
X154696Y108431D01*
X154794Y108418D01*
G03X156496Y110555I206J1582D01*
G02X156870Y111094I375J139D01*
G01X172327D01*
G03X173228Y110844I902J1501D01*
G01X228320D01*
X248225Y130749D01*
X258399D01*
Y130250D01*
G03X259400Y129249I1001J0D01*
G01X270600D01*
G03X271601Y130250I0J1001D01*
G01Y130491D01*
G02X271942Y130632I200J0D01*
G01X273249Y129325D01*
Y111335D01*
G03X276751I1751J-1335D01*
G01Y130776D01*
X272576Y134951D01*
X271601D01*
Y136150D01*
G03X270600Y137151I-1001J0D01*
G01X259400D01*
G03X258399Y136150I0J-1001D01*
G01Y134951D01*
X257424D01*
X256724Y134251D01*
X246775D01*
X226869Y114345D01*
X173228D01*
G03X172327Y114095I0J-1751D01*
G01X159655D01*
G02X159372Y114778I0J400D01*
G01X181293Y136699D01*
X193399D01*
Y135250D01*
G03X194400Y134249I1001J0D01*
G01X205600D01*
G03X206601Y135250I0J1001D01*
G01Y141150D01*
G03X205600Y142151I-1001J0D01*
G01X194400D01*
G03X193399Y141150I0J-1001D01*
G01Y139701D01*
X180050D01*
X177283Y136934D01*
G02X176601Y137217I-283J283D01*
G01Y141150D01*
G03X175600Y142151I-1001J0D01*
G01X164400D01*
G03X163399Y141150I0J-1001D01*
G01Y139701D01*
X162778D01*
X162078Y139001D01*
X156878D01*
X137589Y119711D01*
G02X136906Y119994I-283J283D01*
G01Y123268D01*
X139001Y125363D01*
Y134249D01*
X143100D01*
G03X144101Y135250I0J1001D01*
G01Y141150D01*
G03X143100Y142151I-1001J0D01*
G01X131900D01*
G03X130899Y141150I0J-1001D01*
G01Y139701D01*
X130278D01*
X129578Y139001D01*
X128122D01*
X124001Y143122D01*
Y147122D01*
X122122Y149001D01*
X91451D01*
Y153100D01*
G03X90450Y154101I-1001J0D01*
G01X84550D01*
G03X83549Y153100I0J-1001D01*
G01Y141900D01*
G03X84550Y140899I1001J0D01*
G01X90450D01*
G03X91451Y141900I0J1001D01*
G01Y145999D01*
X120878D01*
X120999Y145878D01*
Y141878D01*
X126878Y135999D01*
X130899D01*
Y135250D01*
G03X131900Y134249I1001J0D01*
G01X135999D01*
Y126606D01*
X133905Y124511D01*
Y116011D01*
X135131Y114784D01*
Y113555D01*
X133673Y112097D01*
X133593Y112095D01*
G03X133206Y111709I8J-394D01*
G01X133205Y111628D01*
X132999Y111423D01*
Y111281D01*
X132672D01*
X132618Y111396D01*
G03X129950Y110802I-1268J-594D01*
G01Y105600D01*
G03X132750I1400J0D01*
G01Y107699D01*
X133080D01*
X133133Y107582D01*
G03X133206Y107441I1366J622D01*
G01Y104701D01*
G03X133601Y104306I394J0D01*
G01X135399D01*
G03X135794Y104701I0J394D01*
G01Y107441D01*
G03X135867Y107582I-1292J763D01*
G01X135920Y107699D01*
X136250D01*
Y105600D01*
G03X139050I1400J0D01*
G01Y110802D01*
G03X138248Y112067I-1400J0D01*
G01X138133Y112122D01*
Y112619D01*
G02X138474Y112761I200J0D01*
G01X139714Y111521D01*
X139648Y111391D01*
G03X139506Y110802I1152J-590D01*
G01Y105600D01*
G03X142093I1294J0D01*
G01Y108012D01*
X142452D01*
X142488Y107857D01*
G03X142655Y107441I1461J344D01*
G01Y105600D01*
G03X143054Y104665I1294J0D01*
G01Y103821D01*
G03X144843I894J-1321D01*
G01Y104665D01*
G03X145243Y105600I-895J935D01*
G01Y107441D01*
G03X145339Y107634I-1292J763D01*
G02X145709I185J-75D01*
G03X145805Y107441I1388J569D01*
G01Y105600D01*
G03X145932Y105040I1294J0D01*
G01X145952Y104999D01*
Y99085D01*
X144214Y97347D01*
X125702D01*
X125661Y97367D01*
G03X125101Y97494I-560J-1166D01*
G01X119899D01*
G03X118853Y95439I0J-1294D01*
G02X118530Y94804I-323J-235D01*
G01X115175D01*
X108226Y101753D01*
X59276D01*
X56024Y98501D01*
X31751D01*
Y114649D01*
X32500D01*
G03X33501Y115650I0J1001D01*
G01Y122876D01*
X37420Y126795D01*
Y137956D01*
X38169D01*
G03X39170Y138957I0J1001D01*
G01Y146183D01*
X45221Y152233D01*
X66141D01*
X66749Y151625D01*
Y141900D01*
G03X67750Y140899I1001J0D01*
G01X73650D01*
G03X74651Y141900I0J1001D01*
G01Y153100D01*
G03X73650Y154101I-1001J0D01*
G01X69225D01*
X67591Y155735D01*
X43770D01*
X36694Y148658D01*
X33169D01*
G03X32169Y147657I0J-1001D01*
G01Y138957D01*
G03X33169Y137956I1001J0D01*
G01X33919D01*
Y128245D01*
X31024Y125351D01*
X27500D01*
G03X26499Y124350I0J-1001D01*
G01Y115650D01*
G03X27500Y114649I1001J0D01*
G01X28249D01*
Y98501D01*
X-25196D01*
Y183464D01*
X443307D01*
Y-9448D01*
X-25196D01*
Y-8501D01*
X81001D01*
Y98247D01*
X83787D01*
G02X84070Y97565I0J-400D01*
G01X83349Y96843D01*
Y83157D01*
X85256Y81250D01*
X83349Y79343D01*
Y65657D01*
X85107Y63899D01*
X88950D01*
X90566Y62283D01*
G02X90283Y61601I-283J-283D01*
G01X86350D01*
G03X85349Y60600I0J-1001D01*
G01Y49400D01*
G03X86350Y48399I1001J0D01*
G01X87549D01*
Y41750D01*
X82849Y37050D01*
Y22950D01*
X84900Y20899D01*
X93700D01*
X99001Y26200D01*
Y48651D01*
X102141Y51791D01*
X114269D01*
X117796Y55317D01*
X117859Y55328D01*
G03X115328Y57859I-359J2172D01*
G01X115317Y57796D01*
X112817Y55296D01*
X101417D01*
G03X100120Y54722I0J-1753D01*
G01X97183Y51785D01*
G02X96501Y52069I-283J283D01*
G01Y60593D01*
X91878Y65217D01*
G02X92161Y65899I283J283D01*
G01X92250D01*
G03X93251Y66900I0J1001D01*
G01Y70999D01*
X100622D01*
X107870Y78247D01*
X107952D01*
G03X109559Y78948I-4J2202D01*
G01X122500D01*
G03X123260Y79155I0J1501D01*
G01X125101D01*
G03Y81743I0J1294D01*
G01X123260D01*
G03X123067Y81839I-763J-1292D01*
G02Y82209I75J185D01*
G03X123260Y82305I-569J1388D01*
G01X125101D01*
G03Y84892I0J1294D01*
G01X123260D01*
G03X123063Y84990I-762J-1293D01*
G02Y85361I75J185D01*
G03X123260Y85458I-564J1391D01*
G01X125101D01*
G03Y88046I0J1294D01*
G01X123260D01*
G03X123067Y88142I-763J-1292D01*
G02Y88512I75J185D01*
G03X123260Y88608I-569J1388D01*
G01X125101D01*
G03X126352Y89572I0J1294D01*
G02X127021Y89753I387J-102D01*
G01X127921Y88854D01*
X133891D01*
G03X136048Y91203I1109J1146D01*
G02X136310Y91905I263J302D01*
G01X136474D01*
X139653Y88726D01*
Y77954D01*
X139633Y77913D01*
G03X139506Y77353I1166J-560D01*
G01Y72151D01*
G37*
G36*
G01X-25000Y-7500D02*
Y97500D01*
X28249D01*
Y96326D01*
X25749Y93826D01*
Y92851D01*
X25000D01*
G03X23999Y91850I0J-1001D01*
G01Y83150D01*
G03X25000Y82149I1001J0D01*
G01X30000D01*
G03X31001Y83150I0J1001D01*
G01Y85747D01*
X31774D01*
X43776Y73745D01*
X44600D01*
X45051Y73294D01*
X48949D01*
X51706Y76051D01*
Y76687D01*
X53755Y78737D01*
Y91274D01*
X59981Y97500D01*
X80000D01*
Y-7500D01*
X-25000D01*
G37*
%LPC*%
G75*
G36*
G01X357676Y76950D02*
X359213D01*
G02X359175Y73854I3779J-1595D01*
G01X358270D01*
X358175Y73948D01*
X348449D01*
G02X347818Y74087I0J1501D01*
G01X347778Y74106D01*
X343821D01*
G02X343626Y73870I-1321J895D01*
G03X343634Y73295I282J-283D01*
G02X344042Y72353I-886J-943D01*
G01Y67151D01*
G02X343643Y66217I-1294J0D01*
G01Y62381D01*
X343394Y62133D01*
Y61321D01*
G02X341606I-894J-1321D01*
G01Y62874D01*
X341854Y63122D01*
Y66217D01*
G02X341454Y67151I895J935D01*
G01Y72353D01*
G02X341702Y73114I1294J0D01*
G03X341604Y73680I-323J235D01*
G02X343821Y75894I896J1320D01*
G01X344627D01*
X344681Y76008D01*
G02X345848Y76743I1167J-559D01*
G01X347689D01*
G02X347882Y76839I763J-1292D01*
G03Y77209I-75J185D01*
G02X347689Y77305I569J1389D01*
G01X345848D01*
G02Y79892I0J1294D01*
G01X347689D01*
G02X347886Y79990I762J-1293D01*
G03Y80361I-75J185D01*
G02X347689Y80458I564J1391D01*
G01X345848D01*
G02Y83046I0J1294D01*
G01X347689D01*
G02X348106Y83213I761J-1293D01*
G01X348260Y83249D01*
Y83608D01*
X344949D01*
G02X344576Y83873I0J395D01*
G01X344530Y84007D01*
X343949D01*
G02X343922Y84007I0J895D01*
G01X343578D01*
X343480Y84106D01*
X342870D01*
X336469Y77704D01*
X318535D01*
G02X317601Y77305I-935J895D01*
G01X315760D01*
G02X315619Y77231I-763J1292D01*
G01X315502Y77178D01*
Y76849D01*
X317601D01*
G02Y74049I0J-1400D01*
G01X312399D01*
G02X311391Y76420I0J1400D01*
G03X311103Y77098I-288J278D01*
G01X309220D01*
X306501Y74378D01*
Y56878D01*
X303122Y53499D01*
X296177D01*
G02X295276Y53249I-902J1501D01*
G01X271601D01*
Y52050D01*
G02X270600Y51049I-1001J0D01*
G01X259400D01*
G02X258399Y52050I0J1001D01*
G01Y53249D01*
X253835D01*
G02Y56751I-1335J1751D01*
G01X258399D01*
Y57950D01*
G02X259400Y58951I1001J0D01*
G01X270600D01*
G02X271601Y57950I0J-1001D01*
G01Y56751D01*
X295276D01*
G02X296177Y56501I0J-1751D01*
G01X301878D01*
X303499Y58122D01*
Y75622D01*
X307977Y80099D01*
X311259D01*
G03X311528Y80795I0J400D01*
G02X312399Y83046I871J957D01*
G01X317601D01*
G02Y80458I0J-1294D01*
G01X315172D01*
Y80098D01*
X315328Y80063D01*
G02X315760Y79892I-329J-1464D01*
G01X317601D01*
G02X318535Y79493I0J-1294D01*
G01X335728D01*
X342130Y85894D01*
X344221D01*
X344319Y85796D01*
X344464D01*
X344564Y85896D01*
X344579Y85938D01*
G02X344949Y86195I370J-137D01*
G01X351949D01*
G02X352343Y85801I0J-394D01*
G01Y85651D01*
G03X352685Y85510I200J0D01*
G01X353568Y86393D01*
Y88053D01*
X359232Y93717D01*
G02X364630Y99115I3760J1638D01*
G01X370999Y105484D01*
Y114528D01*
X369478Y116049D01*
X359400D01*
G02X358399Y117050I0J1001D01*
G01Y122950D01*
G02X359400Y123951I1001J0D01*
G01X370600D01*
G02X371601Y122950I0J-1001D01*
G01Y118172D01*
X374001Y115772D01*
Y104241D01*
X366754Y96994D01*
X366803Y96872D01*
G02X361475Y91544I-3811J-1517D01*
G01X361353Y91593D01*
X356570Y86809D01*
Y85150D01*
X352202Y80782D01*
G03X352485Y80099I283J-283D01*
G01X355615D01*
X359230Y83715D01*
X359181Y83837D01*
G02X364630Y89115I3811J1517D01*
G01X388499Y112984D01*
Y116049D01*
X384400D01*
G02X383399Y117050I0J1001D01*
G01Y122950D01*
G02X384400Y123951I1001J0D01*
G01X395600D01*
G02X396601Y122950I0J-1001D01*
G01Y117050D01*
G02X395600Y116049I-1001J0D01*
G01X391501D01*
Y111741D01*
X366754Y86994D01*
X366803Y86872D01*
G02X361354Y81594I-3811J-1517D01*
G01X357393Y77632D01*
G03X357676Y76950I283J-283D01*
G37*
G36*
G01X381399Y47050D02*
Y52950D01*
G02X381900Y53451I501J0D01*
G01X393100D01*
G02X393601Y52950I0J-501D01*
G01Y47050D01*
G02X393100Y46549I-501J0D01*
G01X381900D01*
G02X381399Y47050I0J501D01*
G37*
G36*
G01X345848Y89345D02*
X351050D01*
G02Y86757I0J-1294D01*
G01X345848D01*
G02Y89345I0J1294D01*
G37*
G36*
G01X319407Y100600D02*
Y105802D01*
G02X321994I1294J0D01*
G01Y100600D01*
G02X319407I-1294J0D01*
G37*
G36*
G01X322557D02*
Y105802D01*
G02X325144I1294J0D01*
G01Y100600D01*
G02X322557I-1294J0D01*
G37*
G36*
G01X325706Y99701D02*
Y106701D01*
G02X326101Y107095I394J0D01*
G01X327899D01*
G02X328294Y106701I0J-394D01*
G01Y99701D01*
G02X327899Y99306I-394J0D01*
G01X326101D01*
G02X325706Y99701I0J394D01*
G37*
G36*
G01X328856Y100600D02*
Y105802D01*
G02X331443I1294J0D01*
G01Y100600D01*
G02X328856I-1294J0D01*
G37*
G36*
G01X332006D02*
Y105802D01*
G02X334593I1294J0D01*
G01Y100600D01*
G02X332006I-1294J0D01*
G37*
G36*
G01X335155D02*
Y105802D01*
G02X337743I1294J0D01*
G01Y100600D01*
G02X335155I-1294J0D01*
G37*
G36*
G01X338305D02*
Y105802D01*
G02X340892I1294J0D01*
G01Y100600D01*
G02X338305I-1294J0D01*
G37*
G36*
G01Y67151D02*
Y72353D01*
G02X340892I1294J0D01*
G01Y67151D01*
G02X338305I-1294J0D01*
G37*
G36*
G01X335155D02*
Y72353D01*
G02X337743I1294J0D01*
G01Y67151D01*
G02X335155I-1294J0D01*
G37*
G36*
G01X332006D02*
Y72353D01*
G02X334593I1294J0D01*
G01Y67151D01*
G02X332006I-1294J0D01*
G37*
G36*
G01X328856D02*
Y72353D01*
G02X331443I1294J0D01*
G01Y67151D01*
G02X328856I-1294J0D01*
G37*
G36*
G01X312399Y86195D02*
X317601D01*
G02Y83608I0J-1294D01*
G01X312399D01*
G02Y86195I0J1294D01*
G37*
G36*
G01X281549Y29400D02*
Y40600D01*
G02X282050Y41101I501J0D01*
G01X287950D01*
G02X288451Y40600I0J-501D01*
G01Y29400D01*
G02X287950Y28899I-501J0D01*
G01X282050D01*
G02X281549Y29400I0J501D01*
G37*
G36*
G01X193899Y152050D02*
Y157950D01*
G02X194400Y158451I501J0D01*
G01X205600D01*
G02X206101Y157950I0J-501D01*
G01Y152050D01*
G02X205600Y151549I-501J0D01*
G01X194400D01*
G02X193899Y152050I0J501D01*
G37*
G36*
G01X163899D02*
Y157950D01*
G02X164400Y158451I501J0D01*
G01X175600D01*
G02X176101Y157950I0J-501D01*
G01Y152050D01*
G02X175600Y151549I-501J0D01*
G01X164400D01*
G02X163899Y152050I0J501D01*
G37*
G36*
G01X148954Y72151D02*
Y77353D01*
G02X151542I1294J0D01*
G01Y72151D01*
G02X148954I-1294J0D01*
G37*
G36*
G01X145805D02*
Y77353D01*
G02X148392I1294J0D01*
G01Y72151D01*
G02X145805I-1294J0D01*
G37*
G36*
G01X142549D02*
Y77353D01*
G02X145349I1400J0D01*
G01Y72151D01*
G02X142549I-1400J0D01*
G37*
G36*
G01X136356D02*
Y77353D01*
G02X138943I1294J0D01*
G01Y72151D01*
G02X136356I-1294J0D01*
G37*
G36*
G01X133206D02*
Y77353D01*
G02X135794I1294J0D01*
G01Y72151D01*
G02X133206I-1294J0D01*
G37*
G36*
G01X145849Y34400D02*
Y45600D01*
G02X146350Y46101I501J0D01*
G01X152250D01*
G02X152751Y45600I0J-501D01*
G01Y34400D01*
G02X152250Y33899I-501J0D01*
G01X146350D01*
G02X145849Y34400I0J501D01*
G37*
G36*
G01X131399Y152050D02*
Y157950D01*
G02X131900Y158451I501J0D01*
G01X143100D01*
G02X143601Y157950I0J-501D01*
G01Y152050D01*
G02X143100Y151549I-501J0D01*
G01X131900D01*
G02X131399Y152050I0J501D01*
G37*
G36*
G01X126907Y105600D02*
Y110802D01*
G02X129494I1294J0D01*
G01Y105600D01*
G02X126907I-1294J0D01*
G37*
G36*
G01X119899Y100644D02*
X125101D01*
G02Y98057I0J-1294D01*
G01X119899D01*
G02Y100644I0J1294D01*
G37*
G36*
G01X118606Y101601D02*
Y103399D01*
G02X119000Y103794I394J0D01*
G01X126000D01*
G02X126394Y103399I0J-394D01*
G01Y101601D01*
G02X126000Y101206I-394J0D01*
G01X119000D01*
G02X118606Y101601I0J394D01*
G37*
G36*
G01X130057Y71252D02*
Y78252D01*
G02X130451Y78646I394J0D01*
G01X132250D01*
G02X132644Y78252I0J-394D01*
G01Y71252D01*
G02X132250Y70857I-394J0D01*
G01X130451D01*
G02X130057Y71252I0J394D01*
G37*
G36*
G01X126801Y72151D02*
Y77353D01*
G02X129601I1400J0D01*
G01Y72151D01*
G02X126801I-1400J0D01*
G37*
G36*
G01X52169Y138957D02*
Y147657D01*
G02X52669Y148158I501J0D01*
G01X57669D01*
G02X58170Y147657I0J-501D01*
G01Y138957D01*
G02X57669Y138456I-501J0D01*
G01X52669D01*
G02X52169Y138957I0J501D01*
G37*
G36*
G01X46499Y115650D02*
Y124350D01*
G02X47000Y124851I501J0D01*
G01X52000D01*
G02X52501Y124350I0J-501D01*
G01Y115650D01*
G02X52000Y115149I-501J0D01*
G01X47000D01*
G02X46499Y115650I0J501D01*
G37*
G36*
G01X339138Y156260D02*
X344378Y161501D01*
X383122D01*
X391501Y153122D01*
Y140751D01*
X395600D01*
G02X396601Y139750I0J-1001D01*
G01Y133850D01*
G02X395600Y132849I-1001J0D01*
G01X384400D01*
G02X383399Y133850I0J1001D01*
G01Y139750D01*
G02X384400Y140751I1001J0D01*
G01X388499D01*
Y151878D01*
X381878Y158499D01*
X345622D01*
X341262Y154139D01*
X341311Y154017D01*
G02X339138Y156260I-3810J-1518D01*
G37*
G36*
G01X370600Y132849D02*
X359400D01*
G02X358399Y133850I0J1001D01*
G01Y135299D01*
X355078D01*
X345999Y144378D01*
Y148683D01*
G02X349001I1501J3817D01*
G01Y145622D01*
X356322Y138301D01*
X358399D01*
Y139750D01*
G02X359400Y140751I1001J0D01*
G01X370600D01*
G02X371601Y139750I0J-1001D01*
G01Y133850D01*
G02X370600Y132849I-1001J0D01*
G37*
G36*
G01X270600Y146049D02*
X268089D01*
G03X267806Y145367I0J-400D01*
G01X291672Y121501D01*
X316878D01*
X324378Y129001D01*
X328898D01*
Y130101D01*
G02X329899Y131102I1001J0D01*
G01X335101D01*
G02X336102Y130101I0J-1001D01*
G01Y124899D01*
G02X335101Y123898I-1001J0D01*
G01X329899D01*
G02X328898Y124899I0J1001D01*
G01Y125999D01*
X325622D01*
X318122Y118499D01*
X290428D01*
X263499Y145428D01*
Y146049D01*
X259400D01*
G02X258399Y147050I0J1001D01*
G01Y152950D01*
G02X259400Y153951I1001J0D01*
G01X270600D01*
G02X271601Y152950I0J-1001D01*
G01Y147050D01*
G02X270600Y146049I-1001J0D01*
G37*
G36*
G01X68417Y126362D02*
X68378Y126244D01*
X70622Y124001D01*
X92469D01*
G03X92722Y124711I0J400D01*
G02X97278I2278J2789D01*
G03X97531Y124001I253J-310D01*
G01X125622D01*
X130678Y118944D01*
X130707Y118930D01*
G02X128570Y116793I-707J-1430D01*
G01X128556Y116822D01*
X124378Y120999D01*
X69378D01*
X66256Y124122D01*
X66138Y124083D01*
G02X68417Y126362I-1138J3417D01*
G37*
G36*
G01X308382Y99094D02*
X308369Y98996D01*
X308970Y98394D01*
X311081D01*
X311127Y98529D01*
G02X311500Y98794I373J-130D01*
G01X318500D01*
G02X318894Y98399I0J-394D01*
G01Y96601D01*
G02X318500Y96206I-394J0D01*
G01X311500D01*
G02X311127Y96471I0J395D01*
G01X311081Y96606D01*
X308230D01*
X307104Y97731D01*
X307006Y97718D01*
G02X308382Y99094I-206J1582D01*
G37*
G36*
G01X204002Y69777D02*
X198102D01*
G02X197101Y70778I0J1001D01*
G01Y81978D01*
G02X198102Y82979I1001J0D01*
G01X202880D01*
X204088Y84186D01*
X210436D01*
X218122Y76501D01*
X223683D01*
G02Y73499I3817J-1501D01*
G01X216878D01*
X209193Y81185D01*
X205331D01*
X205003Y80856D01*
Y70778D01*
G02X204002Y69777I-1001J0D01*
G37*
G36*
G01X289400Y88251D02*
X300600D01*
G02X301601Y87250I0J-1001D01*
G01Y85801D01*
X306258D01*
X306289Y85811D01*
G02Y82789I511J-1511D01*
G01X306258Y82799D01*
X301601D01*
Y81350D01*
G02X300600Y80349I-1001J0D01*
G01X290522D01*
X290193Y80021D01*
Y77371D01*
X283122Y70299D01*
X271601D01*
Y68850D01*
G02X270600Y67849I-1001J0D01*
G01X259400D01*
G02X258399Y68850I0J1001D01*
G01Y74750D01*
G02X259400Y75751I1001J0D01*
G01X270600D01*
G02X271601Y74750I0J-1001D01*
G01Y73301D01*
X281878D01*
X287192Y78614D01*
Y81264D01*
X288399Y82472D01*
Y87250D01*
G02X289400Y88251I1001J0D01*
G37*
G36*
G01X300600Y63549D02*
X298089D01*
G03X297806Y62867I0J-400D01*
G01X299172Y61501D01*
X299458D01*
X299489Y61511D01*
G02Y58489I511J-1511D01*
G01X299458Y58499D01*
X297928D01*
X293499Y62928D01*
Y63549D01*
X289400D01*
G02X288399Y64550I0J1001D01*
G01Y70450D01*
G02X289400Y71451I1001J0D01*
G01X300600D01*
G02X301601Y70450I0J-1001D01*
G01Y64550D01*
G02X300600Y63549I-1001J0D01*
G37*
G36*
G01X358891Y62254D02*
Y68455D01*
G02X359891Y69456I1001J0D01*
G01X366093D01*
G02X367094Y68455I0J-1001D01*
G01Y63375D01*
X368301Y62168D01*
Y58679D01*
X364702Y55079D01*
Y54996D01*
G02X362496Y57202I-2202J4D01*
G01X362579D01*
X365300Y59922D01*
Y60924D01*
X364971Y61253D01*
X359891D01*
G02X358891Y62254I0J1001D01*
G37*
G36*
G01X204002Y50092D02*
X198102D01*
G02X197101Y51093I0J1001D01*
G01Y62293D01*
G02X198102Y63294I1001J0D01*
G01X202880D01*
X206087Y66501D01*
X223683D01*
G02Y63499I3817J-1501D01*
G01X207331D01*
X205003Y61171D01*
Y51093D01*
G02X204002Y50092I-1001J0D01*
G37*
G36*
G01X310999Y51611D02*
Y64458D01*
X310989Y64489D01*
G02X314011I1511J511D01*
G01X314001Y64458D01*
Y51611D01*
G02X310999I-1501J-1611D01*
G37*
G36*
G01X135450Y33399D02*
X129550D01*
G02X128549Y34400I0J1001D01*
G01Y38499D01*
X124111D01*
G02Y41501I-1611J1501D01*
G01X128549D01*
Y45600D01*
G02X129550Y46601I1001J0D01*
G01X135450D01*
G02X136451Y45600I0J-1001D01*
G01Y34400D01*
G02X135450Y33399I-1001J0D01*
G37*
G36*
G01X202250Y30899D02*
X196350D01*
G02X195349Y31900I0J1001D01*
G01Y43100D01*
G02X196350Y44101I1001J0D01*
G01X202250D01*
G02X203251Y43100I0J-1001D01*
G01Y39001D01*
X210737D01*
X213499Y41763D01*
Y53122D01*
X216878Y56501D01*
X223398D01*
Y58101D01*
G02X224399Y59102I1001J0D01*
G01X230601D01*
G02X231602Y58101I0J-1001D01*
G01Y51899D01*
G02X230601Y50898I-1001J0D01*
G01X224399D01*
G02X223398Y51899I0J1001D01*
G01Y53499D01*
X218122D01*
X216501Y51878D01*
Y40520D01*
X211980Y35999D01*
X203251D01*
Y31900D01*
G02X202250Y30899I-1001J0D01*
G37*
G36*
G01X300600Y125349D02*
X289400D01*
G02X288399Y126350I0J1001D01*
G01Y132250D01*
G02X289400Y133251I1001J0D01*
G01X300600D01*
G02X301601Y132250I0J-1001D01*
G01Y130801D01*
X303678D01*
X321095Y148217D01*
X320880Y148433D01*
X320777Y148414D01*
G02X320601Y148398I-177J985D01*
G01X314399D01*
G02X313398Y149399I0J1001D01*
G01Y150999D01*
X288122D01*
X284702Y147579D01*
Y147496D01*
G02X282496Y149702I-2202J4D01*
G01X282579D01*
X286878Y154001D01*
X313398D01*
Y155601D01*
G02X314399Y156602I1001J0D01*
G01X320601D01*
G02X321602Y155601I0J-1001D01*
G01Y149399D01*
G02X321586Y149223I-1001J1D01*
G01X321567Y149120D01*
X321783Y148905D01*
X323740Y150862D01*
G02X325862Y148740I3760J1638D01*
G01X304922Y127799D01*
X301601D01*
Y126350D01*
G02X300600Y125349I-1001J0D01*
G37*
G36*
G01X341454Y105802D02*
G02X341777Y106656I1294J0D01*
G03X341759Y107204I-300J264D01*
G01X337964Y110999D01*
X301601D01*
Y109550D01*
G02X300600Y108549I-1001J0D01*
G01X289400D01*
G02X288399Y109550I0J1001D01*
G01Y115450D01*
G02X289400Y116451I1001J0D01*
G01X300600D01*
G02X301601Y115450I0J-1001D01*
G01Y114001D01*
X339207D01*
X346042Y107166D01*
Y99236D01*
X345942Y99135D01*
G03X346083Y98794I141J-142D01*
G01X351050D01*
G02X351924Y96546I0J-1294D01*
G03X352194Y95851I270J-295D01*
G01X352729D01*
X352850Y95972D01*
Y125878D01*
X352729Y125999D01*
X348274D01*
G02Y129001I-3274J1501D01*
G01X353972D01*
X355851Y127122D01*
Y94729D01*
X353972Y92850D01*
X352346D01*
G03X352058Y92172I0J-400D01*
G02X351050Y89801I-1009J-971D01*
G01X345848D01*
G02Y92601I0J1400D01*
G01X347947D01*
Y92930D01*
X347830Y92983D01*
G02X347689Y93057I622J1366D01*
G01X345848D01*
G02Y95644I0J1294D01*
G01X347689D01*
G02X348106Y95811I761J-1293D01*
G01X348260Y95848D01*
Y96206D01*
X345848D01*
G02X344640Y97037I0J1294D01*
G03X343983Y97177I-373J-143D01*
G01X341501Y94694D01*
Y88042D01*
X341511Y88011D01*
G02X338489I-1511J-511D01*
G01X338499Y88042D01*
Y95938D01*
X341759Y99198D01*
G03X341777Y99745I-283J283D01*
G02X341454Y100600I971J855D01*
G01Y105802D01*
G37*
G36*
G01X271601Y92750D02*
G02X270600Y91749I-1001J0D01*
G01X260522D01*
X260193Y91421D01*
Y88771D01*
X254922Y83499D01*
X231317D01*
G02X223683I-3817J1501D01*
G01X221878D01*
X210815Y94562D01*
X205003D01*
Y90463D01*
G02X204002Y89462I-1001J0D01*
G01X198102D01*
G02X197101Y90463I0J1001D01*
G01Y101663D01*
G02X198102Y102664I1001J0D01*
G01X204002D01*
G02X205003Y101663I0J-1001D01*
G01Y97564D01*
X212059D01*
X223122Y86501D01*
X223683D01*
G02X231317I3817J-1501D01*
G01X253678D01*
X257192Y90014D01*
Y92664D01*
X258399Y93872D01*
Y98650D01*
G02X259400Y99651I1001J0D01*
G01X269432D01*
G03X269715Y100333I0J400D01*
G01X269050Y100999D01*
X264716D01*
X262216Y103499D01*
X175622D01*
X173122Y100999D01*
X159694D01*
G03X159424Y100304I0J-400D01*
G02X158550Y98057I-874J-954D01*
G01X153348D01*
G02Y100644I0J1294D01*
G01X155760D01*
Y101003D01*
X155606Y101039D01*
G02X155189Y101206I344J1461D01*
G01X153348D01*
G02Y103794I0J1294D01*
G01X155189D01*
G02X155949Y104001I761J-1294D01*
G01X171878D01*
X173194Y105317D01*
G03X172911Y105999I-283J283D01*
G01X165542D01*
X165511Y105989D01*
G02Y109011I-511J1511D01*
G01X165542Y109001D01*
X258512D01*
G03X258906Y109467I0J400D01*
G02X258899Y109550I494J84D01*
G01Y115450D01*
G02X259400Y115951I501J0D01*
G01X270600D01*
G02X271101Y115450I0J-501D01*
G01Y109550D01*
G02X270600Y109049I-501J0D01*
G01X264706D01*
G03X264422Y108367I0J-400D01*
G01X266288Y106501D01*
X270622D01*
X277921Y99202D01*
X279241D01*
X281702Y96741D01*
Y95421D01*
X284421Y92702D01*
X311255D01*
G03X311525Y93396I0J400D01*
G02X311465Y93456I875J953D01*
G01X307630D01*
X306980Y94106D01*
X303821D01*
G02Y95894I-1321J894D01*
G01X307721D01*
X308370Y95245D01*
X311465D01*
G02X312399Y95644I935J-895D01*
G01X317601D01*
G02Y93057I0J-1294D01*
G01X315189D01*
Y92698D01*
X315343Y92662D01*
G02X315760Y92494I-344J-1461D01*
G01X317601D01*
G02Y89907I0J-1294D01*
G01X315760D01*
G02X315343Y89740I-761J1293D01*
G01X315189Y89704D01*
Y89345D01*
X317601D01*
G02Y86757I0J-1294D01*
G01X312399D01*
G02X311525Y89005I0J1294D01*
G03X311255Y89700I-270J295D01*
G01X283178D01*
X279526Y93352D01*
G03X278975Y93366I-283J-283D01*
G02X275323Y94670I-1475J1634D01*
G01X275313Y94735D01*
X272283Y97765D01*
G03X271601Y97482I-283J-283D01*
G01Y92750D01*
G37*
G36*
G01X169001Y55622D02*
X174729Y49893D01*
Y39992D01*
X175720Y39001D01*
X178549D01*
Y43100D01*
G02X179550Y44101I1001J0D01*
G01X185450D01*
G02X186451Y43100I0J-1001D01*
G01Y31900D01*
G02X185450Y30899I-1001J0D01*
G01X179550D01*
G02X178549Y31900I0J1001D01*
G01Y35999D01*
X174477D01*
X171728Y38748D01*
Y48650D01*
X165999Y54378D01*
Y74727D01*
X160546Y80180D01*
G03X159882Y80020I-283J-283D01*
G02X158550Y79049I-1333J429D01*
G01X153348D01*
G02Y81849I0J1400D01*
G01X155447D01*
Y82178D01*
X155330Y82231D01*
G02X155189Y82305I622J1366D01*
G01X153348D01*
G02Y84892I0J1294D01*
G01X155189D01*
G02X155386Y84990I762J-1293D01*
G03Y85361I-75J185D01*
G02X155189Y85458I564J1391D01*
G01X153348D01*
G02Y88046I0J1294D01*
G01X155189D01*
G02X155382Y88142I763J-1292D01*
G03Y88512I-75J185D01*
G02X155189Y88608I569J1388D01*
G01X152449D01*
G02X152054Y89002I0J394D01*
G01Y90801D01*
G02X152449Y91195I394J0D01*
G01X155189D01*
G02X155382Y91291I763J-1292D01*
G03Y91661I-75J185D01*
G02X155189Y91757I569J1388D01*
G01X153348D01*
G02Y94345I0J1294D01*
G01X155189D01*
G02X155606Y94512I761J-1293D01*
G01X155760Y94548D01*
Y94907D01*
X153348D01*
G02Y97494I0J1294D01*
G01X158550D01*
G02X159424Y95247I0J-1294D01*
G03X159694Y94552I270J-295D01*
G01X166329D01*
X168278Y96501D01*
X178617D01*
X179680Y97564D01*
X180301D01*
Y101663D01*
G02X181302Y102664I1001J0D01*
G01X187202D01*
G02X188203Y101663I0J-1001D01*
G01Y90463D01*
G02X187202Y89462I-1001J0D01*
G01X181302D01*
G02X180301Y90463I0J1001D01*
G01Y93457D01*
G03X179960Y93598I-200J0D01*
G01X179861Y93499D01*
X169521D01*
X167572Y91550D01*
X164038D01*
G03X163755Y90868I0J-400D01*
G01X176744Y77879D01*
X180301D01*
Y81978D01*
G02X181302Y82979I1001J0D01*
G01X187202D01*
G02X188203Y81978I0J-1001D01*
G01Y70778D01*
G02X187202Y69777I-1001J0D01*
G01X181302D01*
G02X180301Y70778I0J1001D01*
G01Y74877D01*
X175500D01*
X161977Y88401D01*
X161388D01*
G03X161105Y87718I0J-400D01*
G01X174001Y74822D01*
Y60622D01*
X176429Y58194D01*
X180301D01*
Y62293D01*
G02X181302Y63294I1001J0D01*
G01X187202D01*
G02X188203Y62293I0J-1001D01*
G01Y51093D01*
G02X187202Y50092I-1001J0D01*
G01X181302D01*
G02X180301Y51093I0J1001D01*
G01Y55192D01*
X175185D01*
X170999Y59378D01*
Y73579D01*
X169683Y74894D01*
G03X169001Y74611I-283J-283D01*
G01Y55622D01*
G37*
G36*
G01X322202Y42421D02*
X326244Y38378D01*
X326362Y38417D01*
G02X324226Y33499I1138J-3417D01*
G01X305751D01*
Y29400D01*
G02X304750Y28399I-1001J0D01*
G01X298850D01*
G02X297849Y29400I0J1001D01*
G01Y40600D01*
G02X298850Y41601I1001J0D01*
G01X304750D01*
G02X305751Y40600I0J-1001D01*
G01Y36501D01*
X322911D01*
G03X323194Y37183I0J400D01*
G01X319200Y41178D01*
Y69752D01*
G02X319407Y70512I1501J0D01*
G01Y72353D01*
G02X321994I1294J0D01*
G01Y70512D01*
G02X322091Y70319I-1292J-763D01*
G03X322461I185J75D01*
G02X322557Y70512I1388J-569D01*
G01Y73252D01*
G02X322951Y73646I394J0D01*
G01X324750D01*
G02X325144Y73252I0J-394D01*
G01Y70512D01*
G02X325311Y70095I-1293J-761D01*
G01X325348Y69941D01*
X325706D01*
Y72353D01*
G02X328294I1294J0D01*
G01Y67151D01*
G02X326046Y66277I-1294J0D01*
G03X325351Y66007I-295J-270D01*
G01Y64271D01*
X353122Y36501D01*
X354226D01*
G02X360774I3274J-1501D01*
G01X379722D01*
X380558Y35665D01*
G03X380899Y35806I141J141D01*
G01Y36150D01*
G02X381900Y37151I1001J0D01*
G01X393100D01*
G02X394101Y36150I0J-1001D01*
G01Y30250D01*
G02X393100Y29249I-1001J0D01*
G01X381900D01*
G02X380899Y30250I0J1001D01*
G01Y31699D01*
X380278D01*
X378478Y33499D01*
X360774D01*
G02X354226I-3274J1501D01*
G01X351878D01*
X322884Y62493D01*
G03X322202Y62210I-283J-283D01*
G01Y42421D01*
G37*
G36*
G01X69049Y49400D02*
Y60600D01*
G02X69550Y61101I501J0D01*
G01X75450D01*
G02X75951Y60600I0J-501D01*
G01Y49400D01*
G02X75450Y48899I-501J0D01*
G01X69550D01*
G02X69049Y49400I0J501D01*
G37*
G36*
G01X28543Y62302D02*
G02Y67816I0J2757D01*
G01X31299D01*
G02Y62302I0J-2757D01*
G01X28543D01*
G37*
G36*
G01X43110D02*
G02Y67816I0J2757D01*
G01X45866D01*
G02Y62302I0J-2757D01*
G01X43110D01*
G37*
G36*
G01X28543Y21948D02*
G02Y27461I0J2757D01*
G01X31299D01*
G02Y21948I0J-2757D01*
G01X28543D01*
G37*
G36*
G01X43110D02*
G02Y27461I0J2757D01*
G01X45866D01*
G02Y21948I0J-2757D01*
G01X43110D01*
G37*
G36*
G01X74001Y23399D02*
Y21611D01*
G02X70999I-1501J-1611D01*
G01Y23399D01*
X69550D01*
G02X68549Y24400I0J1001D01*
G01Y35600D01*
G02X69550Y36601I1001J0D01*
G01X75450D01*
G02X76451Y35600I0J-1001D01*
G01Y24400D01*
G02X75450Y23399I-1001J0D01*
G01X74001D01*
G37*
G36*
G01X47874Y33267D02*
X41102D01*
G02X40708Y33661I0J394D01*
G01Y37992D01*
G02X40793Y38237I394J0D01*
G03Y38732I-314J248D01*
G02X40708Y38976I310J244D01*
G01Y40551D01*
G02X40761Y40750I394J0D01*
G03X40721Y41211I-345J202D01*
G02X40602Y41535I381J324D01*
G01Y43110D01*
G02X40721Y43435I501J0D01*
G03X40761Y43896I-305J259D01*
G02X40708Y44094I341J198D01*
G01Y49106D01*
X40102D01*
G02Y50894I0J894D01*
G01X40706D01*
X40765Y50991D01*
G02X40793Y51032I338J-203D01*
G03Y51527I-314J248D01*
G02X40708Y51772I310J244D01*
G01Y56102D01*
G02X41102Y56497I394J0D01*
G01X47874D01*
G02X48269Y56102I0J-394D01*
G01Y51772D01*
G02X48184Y51527I-394J0D01*
G03Y51032I314J-248D01*
G02X48212Y50991I-310J-244D01*
G01X48270Y50894D01*
X48504D01*
X52549Y54940D01*
Y58814D01*
X53431Y59696D01*
X53418Y59794D01*
G02X54794Y58418I1582J206D01*
G01X54696Y58431D01*
X54338Y58073D01*
Y55993D01*
G03X55021Y55710I400J0D01*
G01X60999Y61688D01*
Y85622D01*
X66878Y91501D01*
X68549D01*
Y95600D01*
G02X69550Y96601I1001J0D01*
G01X75450D01*
G02X76451Y95600I0J-1001D01*
G01Y84400D01*
G02X75450Y83399I-1001J0D01*
G01X69550D01*
G02X68549Y84400I0J1001D01*
G01Y88499D01*
X68122D01*
X64001Y84378D01*
Y71089D01*
G03X64683Y70806I400J0D01*
G01X67878Y74001D01*
X68549D01*
Y78100D01*
G02X69550Y79101I1001J0D01*
G01X75450D01*
G02X76451Y78100I0J-1001D01*
G01Y66900D01*
G02X75450Y65899I-1001J0D01*
G01X69550D01*
G02X68549Y66900I0J1001D01*
G01Y69461D01*
G03X67867Y69744I-400J0D01*
G01X66501Y68378D01*
Y59378D01*
X50504Y43381D01*
X48371D01*
Y43171D01*
X48372Y43161D01*
G02X48375Y43110I-498J-49D01*
G01Y41535D01*
G02X48256Y41211I-501J0D01*
G03X48215Y40750I305J-259D01*
G02X48269Y40551I-341J-198D01*
G01Y38976D01*
G02X48184Y38732I-394J0D01*
G03Y38237I314J-248D01*
G02X48269Y37992I-310J-244D01*
G01Y33661D01*
G02X47874Y33267I-394J0D01*
G37*
G54D29*
X-2500Y167500D03*
X428346Y4724D03*
X427559Y170079D03*
X-4724Y4724D03*
G54D30*
X227500Y95000D03*
X362992Y105354D03*
X357500Y152500D03*
%LPD*%
G75*
G54D10*
X-4724Y4724D03*
X-2500Y167500D03*
X428346Y4724D03*
X427559Y170079D03*
G54D11*
X44488Y35827D03*
Y53937D03*
G54D20*
X122500Y102500D03*
X155949Y89902D03*
X315000Y97500D03*
X348449Y84902D03*
G54D21*
X122500Y99350D03*
Y96201D03*
Y93051D03*
Y89902D03*
Y86752D03*
Y83598D03*
Y80449D03*
X155949D03*
Y83598D03*
Y86752D03*
Y93051D03*
Y96201D03*
Y99350D03*
Y102500D03*
X315000Y94350D03*
Y91201D03*
Y88051D03*
Y84902D03*
Y81752D03*
Y78598D03*
Y75449D03*
X348449D03*
Y78598D03*
Y81752D03*
Y88051D03*
Y91201D03*
Y94350D03*
Y97500D03*
G54D12*
X44488Y39764D03*
Y42323D03*
Y50000D03*
Y47441D03*
Y44882D03*
G54D22*
X137500Y155000D03*
Y138200D03*
X170000Y155000D03*
Y138200D03*
X200000Y155000D03*
Y138200D03*
X265000Y55000D03*
Y71800D03*
Y95700D03*
Y112500D03*
Y133200D03*
Y150000D03*
X295000Y67500D03*
Y84300D03*
Y112500D03*
Y129300D03*
X365000Y120000D03*
Y136800D03*
X387500Y33200D03*
Y50000D03*
X390000Y120000D03*
Y136800D03*
G54D13*
X44488Y24705D03*
X29921D03*
X44488Y65059D03*
X29921D03*
G54D23*
X227500Y75000D03*
Y65000D03*
Y95000D03*
Y85000D03*
X337500Y152500D03*
X327500D03*
X362992Y75354D03*
Y105354D03*
Y95354D03*
Y85354D03*
X357500Y152500D03*
X347500D03*
G54D14*
X27500Y87500D03*
X30000Y120000D03*
X35669Y143307D03*
X47000Y87500D03*
X49500Y120000D03*
X55169Y143307D03*
G54D15*
X72500Y30000D03*
Y55000D03*
Y72500D03*
Y90000D03*
X70700Y147500D03*
X89300Y30000D03*
Y55000D03*
Y72500D03*
Y90000D03*
X87500Y147500D03*
X132500Y40000D03*
X149300D03*
X182500Y37500D03*
X184252Y76378D03*
Y56693D03*
Y96063D03*
X199300Y37500D03*
X201052Y76378D03*
Y56693D03*
Y96063D03*
X285000Y35000D03*
X301800D03*
G54D24*
X227500Y55000D03*
X317500Y152500D03*
X362992Y65354D03*
G54D25*
X332500Y127500D03*
G54D16*
X72500Y20000D03*
X55000Y60000D03*
X47000Y78000D03*
X100000Y83250D03*
X122500Y40000D03*
X117500Y57500D03*
X135000Y90000D03*
X128201Y99925D03*
Y85000D03*
X107949Y80449D03*
X110748Y86752D03*
X130000Y117500D03*
X143949Y102500D03*
X137500D03*
Y117500D03*
X155000Y110000D03*
X165000Y107500D03*
X252500Y55000D03*
X277500Y95000D03*
X275000Y110000D03*
X282500Y147500D03*
X312500Y65000D03*
Y50000D03*
X300000Y60000D03*
X306800Y84300D03*
Y99300D03*
X302500Y95000D03*
X342500Y75000D03*
Y60000D03*
X340000Y87500D03*
X362500Y55000D03*
G54D26*
G01X40102Y50000D02*
X44488D01*
G01X65000Y55000D02*
X52323Y42323D01*
G01D02*
X44488D01*
G01X72500Y20000D02*
Y30000D01*
G01Y55000D02*
X76151D01*
G01X72500D02*
Y61301D01*
G01Y48699D02*
Y55000D01*
G01D02*
X65000D01*
G01X55000Y60000D02*
X53444Y58444D01*
Y54569D01*
X48874Y50000D01*
X44488D01*
G01X72500Y72500D02*
X68500D01*
X65000Y69000D01*
Y60000D01*
X49882Y44882D01*
X44488D01*
G01X72500Y90000D02*
X67500D01*
X62500Y85000D01*
Y61067D01*
X48874Y47441D01*
X44488D01*
G01X130000Y117500D02*
X125000Y122500D01*
X70000D01*
X65000Y127500D01*
G01X89300Y30000D02*
Y32650D01*
X95000Y38350D01*
Y59972D01*
X89572Y65400D01*
X85728D01*
X84850Y66278D01*
Y78722D01*
X85728Y79600D01*
X92872D01*
X95000Y81728D01*
X93828Y82900D01*
X85728D01*
X84850Y83778D01*
Y96222D01*
X85728Y97100D01*
X95900D01*
X98000Y95000D01*
X105000D01*
X110098Y89902D01*
X122500D01*
G01X107949Y80449D02*
X100000Y72500D01*
X89300D01*
G01X93250Y90000D02*
X102500D01*
X108902Y83598D01*
X122500D01*
G01X93250Y90000D02*
X100000Y83250D01*
G01X89300Y90000D02*
X93250D01*
G01X137500Y138200D02*
X130900D01*
X130200Y137500D01*
X127500D01*
X122500Y142500D01*
Y146500D01*
X121500Y147500D01*
X87500D01*
G01X122500Y40000D02*
X132500D01*
G01X122500Y80449D02*
X107949D01*
G01X122500Y86752D02*
X110748D01*
G01X143949Y102500D02*
Y108201D01*
G01X184252Y96063D02*
X180302D01*
X179239Y95000D01*
X168899D01*
X166950Y93051D01*
X155949D01*
G01X184252Y76378D02*
X176122D01*
X162598Y89902D01*
X155949D01*
G01X184252Y56693D02*
X175807D01*
X172500Y60000D01*
Y74200D01*
X159948Y86752D01*
X155949D01*
G01X182500Y37500D02*
X175098D01*
X173228Y39370D01*
Y49272D01*
X167500Y55000D01*
Y75348D01*
X159250Y83598D01*
X155949D01*
G01X277500Y95000D02*
X276799Y95701D01*
X276470D01*
X269671Y102500D01*
X265338D01*
X262838Y105000D01*
X175000D01*
X172500Y102500D01*
X155949D01*
G01X137500Y117500D02*
X139056Y115944D01*
Y113444D01*
X140799Y111701D01*
Y108201D01*
G01X170000Y138200D02*
X163400D01*
X162700Y137500D01*
X157500D01*
X137500Y117500D01*
G01X143949Y108201D02*
Y110801D01*
X145293Y112145D01*
X145906D01*
X148761Y115000D01*
X157472D01*
X180672Y138200D01*
X200000D01*
G01X137500D02*
Y125984D01*
X135406Y123890D01*
Y116632D01*
X136632Y115406D01*
Y112933D01*
X134500Y110801D01*
Y108201D01*
G01X173228Y112594D02*
X148892D01*
X147098Y110801D01*
Y108201D01*
G01X155000Y110000D02*
X153201Y108201D01*
X150248D01*
G01X315000Y91201D02*
X283799D01*
X280201Y94799D01*
Y96119D01*
X278619Y97701D01*
X277299D01*
X270000Y105000D01*
X265667D01*
X263167Y107500D01*
X165000D01*
G01X227500Y55000D02*
X217500D01*
X215000Y52500D01*
Y41142D01*
X211358Y37500D01*
X199300D01*
G01X227500Y65000D02*
X206709D01*
X201052Y59343D01*
Y56693D01*
G01Y96063D02*
X211437D01*
X222500Y85000D01*
X227500D01*
G01X201052Y76378D02*
Y79028D01*
X204709Y82685D01*
X209815D01*
X217500Y75000D01*
X227500D01*
G01Y85000D02*
X254300D01*
X258693Y89393D01*
Y92043D01*
X262350Y95700D01*
X265000D01*
G01X315000Y78598D02*
X308598D01*
X305000Y75000D01*
Y57500D01*
X302500Y55000D01*
X295276D01*
G01X265000Y71800D02*
X282500D01*
X288693Y77993D01*
Y80643D01*
X292350Y84300D01*
X295000D01*
G01X265000Y150000D02*
Y146050D01*
X291050Y120000D01*
X317500D01*
X325000Y127500D01*
X332500D01*
G01X317500Y152500D02*
X287500D01*
X282500Y147500D01*
G01X327500Y35000D02*
X301800D01*
G01X312500Y65000D02*
Y50000D01*
G01X295000Y67500D02*
Y63550D01*
X298550Y60000D01*
X300000D01*
G01X310799Y75449D02*
X315000D01*
G01X295000Y84300D02*
X306800D01*
G01Y99300D02*
X308600Y97500D01*
X315000D01*
G01X302500Y95000D02*
X307350D01*
X308000Y94350D01*
X315000D01*
G01X295000Y112500D02*
X338585D01*
X344541Y106544D01*
Y99857D01*
X340000Y95316D01*
Y87500D01*
G01X295000Y129300D02*
X304300D01*
X327500Y152500D01*
G01X320701Y69752D02*
Y41799D01*
X327500Y35000D01*
G01X357500D02*
X352500D01*
X323850Y63650D01*
Y69752D01*
G01X342500Y60000D02*
Y62504D01*
X342748Y62752D01*
Y69752D01*
G01X315000Y75449D02*
X319201D01*
G01X315000Y73848D02*
Y75449D01*
G01X342500Y75000D02*
X348000D01*
X348449Y75449D01*
G01Y84902D02*
X343949D01*
X343850Y85000D01*
X342500D01*
X336098Y78598D01*
X315000D01*
G01X337500Y152500D02*
X345000Y160000D01*
X382500D01*
X390000Y152500D01*
Y136800D01*
G01X357500Y35000D02*
X379100D01*
X380900Y33200D01*
X387500D01*
G01X362500Y55000D02*
X366800Y59300D01*
Y61546D01*
X362992Y65354D01*
G01X348449Y91201D02*
X352650D01*
G01X344248D02*
X348449D01*
G01Y75449D02*
X358797D01*
X358891Y75354D01*
X362992D01*
G01Y85354D02*
X356236Y78598D01*
X348449D01*
G01X362992Y85354D02*
X390000Y112362D01*
Y120000D01*
G01X365000D02*
X367650D01*
X372500Y115150D01*
Y104862D01*
X362992Y95354D01*
G01D02*
X355069Y87431D01*
Y85772D01*
X351049Y81752D01*
X348449D01*
G01Y94350D02*
X353350D01*
X354350Y95350D01*
Y126500D01*
X353350Y127500D01*
X345000D01*
G01X365000Y136800D02*
X355700D01*
X347500Y145000D01*
Y152500D01*
G54D17*
X65000Y127500D03*
X95000D03*
X327500Y35000D03*
X345000Y127500D03*
X357500Y35000D03*
G54D27*
G01X30000Y120000D02*
Y95601D01*
X27500Y93101D01*
Y87500D01*
G01X35669Y143307D02*
Y127520D01*
X30000Y121851D01*
Y120000D01*
G01X70700Y147500D02*
Y150150D01*
X66866Y153984D01*
X44496D01*
X35669Y145158D01*
Y143307D01*
G01X47000Y87500D02*
Y78000D01*
G01Y87500D02*
Y93101D01*
X49500Y95601D01*
Y120000D01*
G01D02*
X52701D01*
G01X46299D02*
X49500D01*
G01D02*
Y125052D01*
G01X55169Y143307D02*
X58370D01*
G01X51969D02*
X55169D01*
G01D02*
Y148359D01*
G01Y138256D02*
Y143307D01*
G01X89300Y55000D02*
Y41025D01*
X84600Y36325D01*
Y23675D01*
X85625Y22650D01*
X92975D01*
X97250Y26925D01*
Y49376D01*
X101417Y53543D01*
G01X131199Y155000D02*
X137500D01*
G01X149300Y40000D02*
X152951D01*
G01X145649D02*
X149300D01*
G01D02*
Y46301D01*
G01Y33699D02*
Y40000D01*
G01X265000Y133200D02*
X258150D01*
X257450Y132500D01*
X247500D01*
X227594Y112594D01*
X173228D01*
G01X137500Y155000D02*
X143801D01*
G01X137500D02*
Y158651D01*
G01Y151349D02*
Y155000D01*
G01X163699D02*
X170000D01*
G01D02*
X176301D01*
G01X170000D02*
Y158651D01*
G01Y151349D02*
Y155000D01*
G01X193699D02*
X200000D01*
G01X223698Y95000D02*
X227500D01*
G01X200000Y155000D02*
X206301D01*
G01X200000D02*
Y158651D01*
G01Y151349D02*
Y155000D01*
G01X252500Y55000D02*
X265000D01*
G01X227500Y95000D02*
X231302D01*
G01X227500D02*
Y98802D01*
G01Y91198D02*
Y95000D01*
G01X281349Y35000D02*
X285000D01*
G01X295276Y55000D02*
X265000D01*
G01Y112500D02*
X271301D01*
G01X258699D02*
X265000D01*
G01D02*
Y116151D01*
G01Y108849D02*
Y112500D01*
G01X275000Y110000D02*
Y130050D01*
X271850Y133200D01*
X265000D01*
G01X285000Y35000D02*
X288651D01*
G01X285000D02*
Y41301D01*
G01Y28699D02*
Y35000D01*
G01X362992Y101553D02*
Y105354D01*
G01D02*
X366794D01*
G01X359191D02*
X362992D01*
G01D02*
Y109156D01*
G01X357500Y152500D02*
X361302D01*
G01X353698D02*
X357500D01*
G01D02*
Y156302D01*
G01Y148698D02*
Y152500D01*
G01X387500Y50000D02*
X393801D01*
G01X381199D02*
X387500D01*
G01D02*
Y53651D01*
G01Y46349D02*
Y50000D01*
G54D18*
X128201Y74752D03*
X131350Y108201D03*
X128201D03*
X134500Y74752D03*
X137650D03*
X140799D03*
X143949D03*
X147098D03*
X150248D03*
Y108201D03*
X147098D03*
X143949D03*
X140799D03*
X137650D03*
X320701Y69752D03*
X327000D03*
X330150D03*
X333299D03*
X336449D03*
X339598D03*
X342748D03*
Y103201D03*
X339598D03*
X336449D03*
X333299D03*
X330150D03*
X323850D03*
X320701D03*
G54D28*
G01X122500Y93051D02*
X114449D01*
X107500Y100000D01*
X60002D01*
X52002Y92000D01*
Y79463D01*
X49953Y77413D01*
Y76777D01*
X48223Y75047D01*
X45777D01*
X45326Y75498D01*
X44502D01*
X32500Y87500D01*
X27500D01*
G01X101417Y53543D02*
X113543D01*
X117500Y57500D01*
G01X143949Y66337D02*
X142445Y64833D01*
X129705D01*
X128201Y66337D01*
G01D02*
Y74752D01*
G01X125248D02*
X128201D01*
G01X131350Y108201D02*
Y103075D01*
G01D02*
X128201Y99925D01*
G01X122500Y96201D02*
Y93051D01*
G01D02*
X125344D01*
G01X147098Y108201D02*
Y98610D01*
X144689Y96201D01*
X122500D01*
G01X125344Y93051D02*
X136949D01*
X140799Y89201D01*
Y74752D01*
G01X135000Y90000D02*
X128396D01*
X125344Y93051D01*
G01X128201Y74752D02*
Y85000D01*
G01Y99925D02*
X134925D01*
X137500Y102500D01*
G01X143949Y74752D02*
Y66337D01*
G01X137500Y102500D02*
X137650Y102650D01*
G01D02*
Y108201D01*
G01X155949Y80449D02*
X145146D01*
G01D02*
X143949Y79252D01*
G01D02*
Y74752D01*
G54D19*
X131350D03*
X134500Y108201D03*
X323850Y69752D03*
X327000Y103201D03*
M02*
